<?xml version="1.0" encoding="UTF-8" standalone="no"?>
<!-- Created with Inkscape (http://www.inkscape.org/) -->

<svg
   xmlns:dc="http://purl.org/dc/elements/1.1/"
   xmlns:cc="http://creativecommons.org/ns#"
   xmlns:rdf="http://www.w3.org/1999/02/22-rdf-syntax-ns#"
   xmlns:svg="http://www.w3.org/2000/svg"
   xmlns="http://www.w3.org/2000/svg"
   xmlns:sodipodi="http://sodipodi.sourceforge.net/DTD/sodipodi-0.dtd"
   xmlns:inkscape="http://www.inkscape.org/namespaces/inkscape"
   width="57.150002mm"
   height="61.647915mm"
   viewBox="0 0 57.150002 61.647915"
   version="1.1"
   id="svg8"
   inkscape:version="0.92.3 (2405546, 2018-03-11)"
   sodipodi:docname="erreur.svg">
  <defs
     id="defs2" />
  <sodipodi:namedview
     id="base"
     pagecolor="#ffffff"
     bordercolor="#666666"
     borderopacity="1.0"
     inkscape:pageopacity="0.0"
     inkscape:pageshadow="2"
     inkscape:zoom="5.6"
     inkscape:cx="196.64165"
     inkscape:cy="122.4676"
     inkscape:document-units="mm"
     inkscape:current-layer="layer1"
     showgrid="false"
     inkscape:window-width="1920"
     inkscape:window-height="1017"
     inkscape:window-x="1592"
     inkscape:window-y="-8"
     inkscape:window-maximized="1" />
  <metadata
     id="metadata5">
    <rdf:RDF>
      <cc:Work
         rdf:about="">
        <dc:format>image/svg+xml</dc:format>
        <dc:type
           rdf:resource="http://purl.org/dc/dcmitype/StillImage" />
        <dc:title></dc:title>
      </cc:Work>
    </rdf:RDF>
  </metadata>
  <g
     inkscape:label="Calque 1"
     inkscape:groupmode="layer"
     id="layer1"
     transform="translate(-115.05595,-93.06295)">
    <g
       id="g21"
       transform="translate(0.15119046,0.01890037)">
      <path
         style="fill:#fdfdfd;stroke-width:0.26458335"
         d="M 115.05595,123.88691 V 93.06295 h 28.575 28.575 v 30.82396 30.82395 h -28.575 -28.575 z"
         id="path37"
         inkscape:connector-curvature="0" />
      <path
         style="fill:#fcd55d;stroke-width:0.26458335"
         d="m 115.05595,152.46191 v -2.24896 h 28.575 28.575 v 2.24896 2.24895 h -28.575 -28.575 z m 11.79286,0.16235 c 0,-0.29798 -0.13709,-0.4465 -0.34018,-0.36857 -0.43302,0.16616 -0.43784,0.51959 -0.009,0.69245 0.1819,0.0734 0.33498,0.14285 0.34018,0.15434 0.005,0.0115 0.009,-0.20371 0.009,-0.47822 z m -3.59078,0.11154 c 0,-0.0676 -0.26789,-0.2528 -0.59531,-0.41147 -0.57166,-0.27703 -0.57491,-0.27215 -0.0817,0.12298 0.53982,0.43248 0.67703,0.49095 0.67703,0.28849 z m 1.46221,-0.61967 c -0.0815,-0.0815 -0.29495,-1.7e-4 -0.47443,0.18065 -0.25936,0.26131 -0.22897,0.2917 0.14811,0.14812 0.26094,-0.0994 0.40779,-0.24731 0.32632,-0.32877 z m 10.88502,-15.04415 c -0.097,-0.097 -0.17639,-0.80912 -0.17639,-1.58246 0,-1.28109 0.0591,-1.42091 0.66489,-1.57295 0.71746,-0.18007 1.45177,0.25019 1.45177,0.85065 0,0.20046 -0.17859,0.36448 -0.39687,0.36448 -0.21828,0 -0.39688,-0.11906 -0.39688,-0.26458 0,-0.14553 -0.11906,-0.26459 -0.26458,-0.26459 -0.14552,0 -0.26458,0.41672 -0.26458,0.92604 0,0.50933 0.11906,0.92605 0.26458,0.92605 0.14552,0 0.26458,-0.11907 0.26458,-0.26459 0,-0.14552 0.1786,-0.26458 0.39688,-0.26458 0.47632,0 0.52084,0.56395 0.0794,1.00542 -0.34224,0.34224 -1.33529,0.42859 -1.62277,0.14111 z m 2.31302,-0.18796 c -0.25115,-0.65447 0.0133,-2.89802 0.35486,-3.01046 0.20733,-0.0683 0.33073,0.14615 0.33073,0.57463 0,0.37593 0.11906,0.68351 0.26458,0.68351 0.14552,0 0.26458,-0.29766 0.26458,-0.66146 0,-0.41157 0.14993,-0.66146 0.39688,-0.66146 0.31207,0 0.39687,0.36748 0.39687,1.71979 0,1.35232 -0.0848,1.7198 -0.39687,1.7198 -0.24695,0 -0.39688,-0.24989 -0.39688,-0.66146 0,-0.3638 -0.11906,-0.66146 -0.26458,-0.66146 -0.14552,0 -0.26458,0.29766 -0.26458,0.66146 0,0.70619 -0.45324,0.9026 -0.68559,0.29711 z m 2.37559,-0.0987 c 0.076,-0.25466 0.27818,-1.03429 0.44932,-1.73252 0.43021,-1.75522 1.02745,-1.58866 1.51854,0.4235 0.39037,1.59943 0.24321,2.23196 -0.33522,1.4409 -0.41468,-0.5671 -0.94139,-0.60387 -0.94139,-0.0657 0,0.21828 -0.18662,0.39688 -0.41471,0.39688 -0.2712,0 -0.36689,-0.16023 -0.27654,-0.46303 z m 1.3161,-1.25677 c -0.0838,-0.21828 -0.19909,-0.39687 -0.25628,-0.39687 -0.0572,0 -0.10399,0.17859 -0.10399,0.39687 0,0.21829 0.11533,0.39688 0.25628,0.39688 0.14095,0 0.18775,-0.17859 0.10399,-0.39688 z m 1.7564,0.39688 c 0,-0.99954 -0.097,-1.32292 -0.39688,-1.32292 -0.21828,0 -0.39687,-0.18578 -0.39687,-0.41285 0,-0.31403 0.23256,-0.39319 0.97173,-0.33072 0.93643,0.0791 1.62457,0.74357 0.77011,0.74357 -0.32632,0 -0.41893,0.29244 -0.41893,1.32292 0,0.7276 -0.11906,1.32292 -0.26458,1.32292 -0.14552,0 -0.26458,-0.59532 -0.26458,-1.32292 z m 1.5875,-0.39688 c 0,-1.71822 7.9e-4,-1.71979 0.76135,-1.71979 0.99363,0 1.31225,0.42504 1.2892,1.71979 -0.0235,1.32295 -0.32103,1.7198 -1.2892,1.7198 -0.76066,0 -0.76135,-0.002 -0.76135,-1.7198 z m 1.32291,0.66146 c 0,-0.14552 -0.11906,-0.26458 -0.26458,-0.26458 -0.14552,0 -0.26458,0.11906 -0.26458,0.26458 0,0.14552 0.11906,0.26459 0.26458,0.26459 0.14552,0 0.26458,-0.11907 0.26458,-0.26459 z m 0,-1.32291 c 0,-0.14553 -0.11906,-0.26459 -0.26458,-0.26459 -0.14552,0 -0.26458,0.11906 -0.26458,0.26459 0,0.14552 0.11906,0.26458 0.26458,0.26458 0.14552,0 0.26458,-0.11906 0.26458,-0.26458 z m 1.38721,2.07512 c -0.43644,-0.43644 -0.41992,-2.11406 0.0268,-2.72503 0.26439,-0.36158 0.5394,-0.44035 1.07129,-0.30686 0.6861,0.1722 0.71232,0.24194 0.63648,1.69266 -0.0728,1.39322 -0.13165,1.5192 -0.74242,1.59058 -0.36483,0.0426 -0.81131,-0.0705 -0.99219,-0.25135 z m 0.99404,-1.41367 c 0,-0.50932 -0.11906,-0.92604 -0.26458,-0.92604 -0.14552,0 -0.26458,0.41672 -0.26458,0.92604 0,0.50933 0.11906,0.92605 0.26458,0.92605 0.14552,0 0.26458,-0.41672 0.26458,-0.92605 z m 1.85209,0.44723 c 0,-0.95001 -0.11519,-1.36085 -0.41365,-1.47538 -0.67363,-0.2585 -0.15626,-0.69164 0.82614,-0.69164 0.63288,0 0.91042,0.12099 0.91042,0.39688 0,0.21828 -0.11253,0.39687 -0.25008,0.39687 -0.13755,0 -0.28638,0.55624 -0.33073,1.23609 -0.11395,1.74664 -0.7421,1.86276 -0.7421,0.13718 z M 135.7,132.36146 c -0.2471,-0.29773 -0.27711,-2.0132 -0.12795,-7.31277 0.21844,-7.76108 0.25773,-7.90866 2.10578,-7.90866 h 0.92604 v -1.73248 c 0,-1.50679 -0.0849,-1.80838 -0.6515,-2.3151 -0.94309,-0.8434 -1.08519,-1.77681 -0.40259,-2.6446 0.74621,-0.94864 2.39966,-1.01871 3.02346,-0.12811 0.61685,0.88068 0.51434,1.98811 -0.24958,2.69608 -0.57751,0.53521 -0.66146,0.83584 -0.66146,2.36862 v 1.75559 h 3.96875 3.96875 v -1.75559 c 0,-1.53278 -0.084,-1.83341 -0.66146,-2.36862 -1.30259,-1.20721 -0.57224,-3.29196 1.17064,-3.34151 0.67846,-0.0193 1.05968,0.15775 1.53863,0.71457 0.76295,0.88698 0.64585,1.82375 -0.33798,2.70357 -0.56662,0.50672 -0.6515,0.80831 -0.6515,2.3151 v 1.73248 h 0.92605 c 1.84804,0 1.88733,0.14758 2.10578,7.90866 0.14916,5.29957 0.11914,7.01504 -0.12796,7.31277 -0.27035,0.32576 -1.55954,0.38899 -7.93095,0.38899 -6.37141,0 -7.6606,-0.0632 -7.93095,-0.38899 z m 17.45356,-15.9416 c 0.64588,-1.20509 0.66233,-1.6994 0.0931,-2.7987 -0.57342,-1.10738 -0.55054,-3.53225 0.0444,-4.70814 2.26038,-4.46745 8.41216,-4.37518 10.48234,0.15722 1.12619,2.46563 0.12739,5.68379 -2.20592,7.10757 -1.43657,0.8766 -3.1854,1.15628 -4.50562,0.72057 -0.58017,-0.19147 -1.15297,-0.21703 -1.55272,-0.0693 -0.34839,0.12878 -1.14052,0.31252 -1.7603,0.40833 l -1.12687,0.1742 z m 2.05291,-4.22471 c -0.56564,-0.14782 -0.61579,-0.61137 -0.0661,-0.61137 0.21828,0 0.39687,-0.11906 0.39687,-0.26458 0,-0.14552 -0.17859,-0.26458 -0.39687,-0.26458 -0.54965,0 -0.4995,-0.46355 0.0661,-0.61137 0.28487,-0.0744 0.18307,-0.13281 -0.26458,-0.15169 -0.6776,-0.0286 -0.72761,0.042 -0.72761,1.02764 0,0.9856 0.05,1.05622 0.72761,1.02764 0.44765,-0.0189 0.54945,-0.0773 0.26458,-0.15169 z m 1.40995,-0.14835 c 0.0167,-0.26458 0.0476,-0.26458 0.15434,0 0.27827,0.68961 0.61852,0.28935 0.61852,-0.7276 0,-0.9525 -0.0661,-1.05833 -0.66145,-1.05833 -0.59532,0 -0.66146,0.10583 -0.66146,1.05833 0,0.58208 0.11906,1.05833 0.26458,1.05833 0.14552,0 0.27399,-0.14883 0.28547,-0.33073 z m -0.0209,-1.14009 c 0,-0.22687 0.11907,-0.33891 0.26459,-0.24897 0.14552,0.0899 0.26458,0.27556 0.26458,0.41249 0,0.13693 -0.11906,0.24897 -0.26458,0.24897 -0.14552,0 -0.26459,-0.18562 -0.26459,-0.41249 z m 2.02657,1.14009 c 0.25497,0.62838 0.48724,0.32618 0.55951,-0.72799 0.0668,-0.97394 0.0195,-1.05794 -0.59531,-1.05794 -0.60995,0 -0.6675,0.0975 -0.6638,1.12448 0.003,0.86633 0.0685,1.03336 0.28473,0.7276 0.21122,-0.29867 0.31388,-0.31503 0.41487,-0.0661 z m -0.43907,-1.12448 c 0,-0.21828 0.11907,-0.39687 0.26459,-0.39687 0.14552,0 0.26458,0.17859 0.26458,0.39687 0,0.21829 -0.11906,0.39688 -0.26458,0.39688 -0.14552,0 -0.26459,-0.17859 -0.26459,-0.39688 z m 2.77813,0.39688 c 0,-0.80447 -0.0845,-0.92604 -0.64342,-0.92604 -0.55445,0 -0.64009,0.1189 -0.61936,0.85989 0.0132,0.47295 0.0349,0.92771 0.0481,1.01059 0.0132,0.0829 0.29195,0.11265 0.61937,0.0662 0.48786,-0.0693 0.59531,-0.25169 0.59531,-1.01059 z m -0.92604,0 c 0,-0.43656 0.11906,-0.79375 0.26458,-0.79375 0.14552,0 0.26458,0.35719 0.26458,0.79375 0,0.43656 -0.11906,0.79375 -0.26458,0.79375 -0.14552,0 -0.26458,-0.35719 -0.26458,-0.79375 z m 1.87297,0.7276 c 0.0167,-0.26458 0.0476,-0.26458 0.15434,0 0.27826,0.68961 0.61852,0.28935 0.61852,-0.7276 0,-0.9525 -0.0661,-1.05833 -0.66146,-1.05833 -0.59531,0 -0.66146,0.10583 -0.66146,1.05833 0,0.58208 0.11907,1.05833 0.26459,1.05833 0.14552,0 0.27398,-0.14883 0.28547,-0.33073 z m -0.0209,-1.12448 c 0,-0.21828 0.11906,-0.39687 0.26458,-0.39687 0.14553,0 0.26459,0.17859 0.26459,0.39687 0,0.21829 -0.11906,0.39688 -0.26459,0.39688 -0.14552,0 -0.26458,-0.17859 -0.26458,-0.39688 z"
         id="path35"
         inkscape:connector-curvature="0" />
      <path
         style="fill:#fdca27;stroke-width:0.26458335"
         d="m 115.05595,152.46191 v -2.24896 h 28.575 28.575 v 2.24896 2.24895 h -28.575 -28.575 z m 11.79286,0.16235 c 0,-0.29798 -0.13709,-0.4465 -0.34018,-0.36857 -0.43302,0.16616 -0.43784,0.51959 -0.009,0.69245 0.1819,0.0734 0.33498,0.14285 0.34018,0.15434 0.005,0.0115 0.009,-0.20371 0.009,-0.47822 z m -3.59078,0.11154 c 0,-0.0676 -0.26789,-0.2528 -0.59531,-0.41147 -0.57166,-0.27703 -0.57491,-0.27215 -0.0817,0.12298 0.53982,0.43248 0.67703,0.49095 0.67703,0.28849 z m 1.46221,-0.61967 c -0.0815,-0.0815 -0.29495,-1.7e-4 -0.47443,0.18065 -0.25936,0.26131 -0.22897,0.2917 0.14811,0.14812 0.26094,-0.0994 0.40779,-0.24731 0.32632,-0.32877 z m 10.88502,-15.04415 c -0.097,-0.097 -0.17639,-0.80912 -0.17639,-1.58246 0,-1.28109 0.0591,-1.42091 0.66489,-1.57295 0.71746,-0.18007 1.45177,0.25019 1.45177,0.85065 0,0.20046 -0.17859,0.36448 -0.39687,0.36448 -0.21828,0 -0.39688,-0.11906 -0.39688,-0.26458 0,-0.14553 -0.11906,-0.26459 -0.26458,-0.26459 -0.14552,0 -0.26458,0.41672 -0.26458,0.92604 0,0.50933 0.11906,0.92605 0.26458,0.92605 0.14552,0 0.26458,-0.11907 0.26458,-0.26459 0,-0.14552 0.1786,-0.26458 0.39688,-0.26458 0.47632,0 0.52084,0.56395 0.0794,1.00542 -0.34224,0.34224 -1.33529,0.42859 -1.62277,0.14111 z m 2.31302,-0.18796 c -0.25115,-0.65447 0.0133,-2.89802 0.35486,-3.01046 0.20733,-0.0683 0.33073,0.14615 0.33073,0.57463 0,0.37593 0.11906,0.68351 0.26458,0.68351 0.14552,0 0.26458,-0.29766 0.26458,-0.66146 0,-0.41157 0.14993,-0.66146 0.39688,-0.66146 0.31207,0 0.39687,0.36748 0.39687,1.71979 0,1.35232 -0.0848,1.7198 -0.39687,1.7198 -0.24695,0 -0.39688,-0.24989 -0.39688,-0.66146 0,-0.3638 -0.11906,-0.66146 -0.26458,-0.66146 -0.14552,0 -0.26458,0.29766 -0.26458,0.66146 0,0.70619 -0.45324,0.9026 -0.68559,0.29711 z m 2.37559,-0.0987 c 0.076,-0.25466 0.27818,-1.03429 0.44932,-1.73252 0.43021,-1.75522 1.02745,-1.58866 1.51854,0.4235 0.39037,1.59943 0.24321,2.23196 -0.33522,1.4409 -0.41468,-0.5671 -0.94139,-0.60387 -0.94139,-0.0657 0,0.21828 -0.18662,0.39688 -0.41471,0.39688 -0.2712,0 -0.36689,-0.16023 -0.27654,-0.46303 z m 1.3161,-1.25677 c -0.0838,-0.21828 -0.19909,-0.39687 -0.25628,-0.39687 -0.0572,0 -0.10399,0.17859 -0.10399,0.39687 0,0.21829 0.11533,0.39688 0.25628,0.39688 0.14095,0 0.18775,-0.17859 0.10399,-0.39688 z m 1.7564,0.39688 c 0,-0.99954 -0.097,-1.32292 -0.39688,-1.32292 -0.21828,0 -0.39687,-0.18578 -0.39687,-0.41285 0,-0.31403 0.23256,-0.39319 0.97173,-0.33072 0.93643,0.0791 1.62457,0.74357 0.77011,0.74357 -0.32632,0 -0.41893,0.29244 -0.41893,1.32292 0,0.7276 -0.11906,1.32292 -0.26458,1.32292 -0.14552,0 -0.26458,-0.59532 -0.26458,-1.32292 z m 1.5875,-0.39688 c 0,-1.71822 7.9e-4,-1.71979 0.76135,-1.71979 0.99363,0 1.31225,0.42504 1.2892,1.71979 -0.0235,1.32295 -0.32103,1.7198 -1.2892,1.7198 -0.76066,0 -0.76135,-0.002 -0.76135,-1.7198 z m 1.32291,0.66146 c 0,-0.14552 -0.11906,-0.26458 -0.26458,-0.26458 -0.14552,0 -0.26458,0.11906 -0.26458,0.26458 0,0.14552 0.11906,0.26459 0.26458,0.26459 0.14552,0 0.26458,-0.11907 0.26458,-0.26459 z m 0,-1.32291 c 0,-0.14553 -0.11906,-0.26459 -0.26458,-0.26459 -0.14552,0 -0.26458,0.11906 -0.26458,0.26459 0,0.14552 0.11906,0.26458 0.26458,0.26458 0.14552,0 0.26458,-0.11906 0.26458,-0.26458 z m 1.38721,2.07512 c -0.43644,-0.43644 -0.41992,-2.11406 0.0268,-2.72503 0.26439,-0.36158 0.5394,-0.44035 1.07129,-0.30686 0.6861,0.1722 0.71232,0.24194 0.63648,1.69266 -0.0728,1.39322 -0.13165,1.5192 -0.74242,1.59058 -0.36483,0.0426 -0.81131,-0.0705 -0.99219,-0.25135 z m 0.99404,-1.41367 c 0,-0.50932 -0.11906,-0.92604 -0.26458,-0.92604 -0.14552,0 -0.26458,0.41672 -0.26458,0.92604 0,0.50933 0.11906,0.92605 0.26458,0.92605 0.14552,0 0.26458,-0.41672 0.26458,-0.92605 z m 1.85209,0.44723 c 0,-0.95001 -0.11519,-1.36085 -0.41365,-1.47538 -0.67363,-0.2585 -0.15626,-0.69164 0.82614,-0.69164 0.63288,0 0.91042,0.12099 0.91042,0.39688 0,0.21828 -0.11253,0.39687 -0.25008,0.39687 -0.13755,0 -0.28638,0.55624 -0.33073,1.23609 -0.11395,1.74664 -0.7421,1.86276 -0.7421,0.13718 z m -14.67683,-3.65247 c -0.34872,-0.34872 -0.40164,-0.82224 -0.2883,-2.57969 0.0764,-1.18391 0.21035,-4.29533 0.29777,-6.91427 0.0887,-2.65699 0.28056,-4.90824 0.43409,-5.09323 0.15133,-0.18234 0.73682,-0.33152 1.30108,-0.33152 h 1.02594 v -2.01245 c 0,-1.83146 -0.0595,-2.05923 -0.66146,-2.53274 -1.30253,-1.02457 -0.51484,-3.12773 1.17142,-3.12773 0.86242,0 1.87129,1.03184 1.87129,1.9139 0,0.2858 -0.36278,0.85851 -0.80617,1.2727 -0.76604,0.71559 -0.80226,0.84271 -0.72761,2.55355 l 0.0786,1.80047 h 4.10104 4.10104 l 0.0786,-1.80047 c 0.0746,-1.71084 0.0384,-1.83796 -0.72761,-2.55355 -0.44339,-0.41419 -0.80617,-0.9869 -0.80617,-1.2727 0,-0.88206 1.00887,-1.9139 1.87129,-1.9139 1.68626,0 2.47395,2.10316 1.17142,3.12773 -0.60197,0.47351 -0.66146,0.70128 -0.66146,2.53274 v 2.01245 h 1.02594 c 0.56427,0 1.14975,0.14918 1.30108,0.33152 0.15353,0.18499 0.3454,2.43624 0.43409,5.09323 0.0874,2.61894 0.22142,5.73036 0.29777,6.91427 0.20633,3.19943 0.72432,3.00681 -8.08596,3.00681 -6.43079,0 -7.42499,-0.0545 -7.79766,-0.42712 z m 17.44816,-15.96391 c 0.51212,-0.99032 0.50805,-1.55077 -0.0204,-2.81559 -0.66694,-1.59621 -0.41047,-4.05002 0.56858,-5.44002 2.11428,-3.00174 6.59324,-3.18924 9.0604,-0.37931 1.90614,2.17097 1.79737,5.2238 -0.26586,7.46214 -1.39204,1.51018 -3.27942,2.13289 -5.20982,1.7189 -0.84528,-0.18128 -1.58995,-0.18833 -2.17483,-0.0206 -0.48918,0.1403 -1.22068,0.25508 -1.62557,0.25508 -0.73001,0 -0.73278,-0.007 -0.33247,-0.78061 z m 2.38804,-3.98189 c 0.0899,-0.14552 -0.0816,-0.26458 -0.38126,-0.26458 -0.29963,0 -0.54478,-0.11906 -0.54478,-0.26458 0,-0.14552 0.1786,-0.26459 0.39688,-0.26459 0.21828,0 0.39687,-0.11906 0.39687,-0.26458 0,-0.14552 -0.17859,-0.26458 -0.39687,-0.26458 -0.21828,0 -0.39688,-0.11907 -0.39688,-0.26459 0,-0.14552 0.24515,-0.26458 0.54478,-0.26458 0.29963,0 0.4712,-0.11906 0.38126,-0.26458 -0.0899,-0.14552 -0.45415,-0.26459 -0.80936,-0.26459 -0.59863,0 -0.64585,0.0967 -0.64585,1.32292 0,1.22619 0.0472,1.32292 0.64585,1.32292 0.35521,0 0.71943,-0.11907 0.80936,-0.26459 z m 0.92604,-0.18286 c 0,-0.39095 0.0504,-0.3826 0.39886,0.0661 0.36901,0.47515 0.39376,0.41458 0.33073,-0.80933 -0.059,-1.14577 -0.14785,-1.33424 -0.66344,-1.40746 -0.55019,-0.0781 -0.59531,0.0171 -0.59531,1.25677 0,0.73772 0.11906,1.34132 0.26458,1.34132 0.14552,0 0.26458,-0.20135 0.26458,-0.44745 z m 0.0209,-1.29439 c 0.0127,-0.30823 0.0754,-0.37092 0.15985,-0.15986 0.0764,0.191 0.067,0.4192 -0.0209,0.50712 -0.0879,0.0879 -0.15046,-0.0683 -0.13897,-0.34726 z m 2.09579,1.29439 c 0,0.2461 0.12559,0.44745 0.27908,0.44745 0.16787,0 0.24694,-0.50083 0.19844,-1.25677 -0.0688,-1.07249 -0.16793,-1.26917 -0.67596,-1.34132 -0.5542,-0.0787 -0.59473,0.0126 -0.58689,1.32291 0.008,1.29513 0.0394,1.36647 0.39687,0.89388 0.33874,-0.44785 0.38846,-0.45632 0.38846,-0.0661 z m -0.36026,-1.27235 c 0.0838,-0.21828 0.19909,-0.39687 0.25628,-0.39687 0.0572,0 0.10398,0.17859 0.10398,0.39687 0,0.21829 -0.11533,0.39688 -0.25628,0.39688 -0.14095,0 -0.18774,-0.17859 -0.10398,-0.39688 z m 2.60922,0.39688 c 0,-1.09361 -0.0539,-1.19063 -0.66146,-1.19063 -0.55684,0 -0.67487,0.14 -0.74625,0.88509 -0.11846,1.23665 0.10932,1.68054 0.81121,1.58087 0.51802,-0.0736 0.5965,-0.24134 0.5965,-1.27533 z m -0.92604,0 c 0,-0.43656 0.11906,-0.79375 0.26458,-0.79375 0.14552,0 0.26458,0.35719 0.26458,0.79375 0,0.43656 -0.11906,0.79375 -0.26458,0.79375 -0.14552,0 -0.26458,-0.35719 -0.26458,-0.79375 z m 1.85208,0.87547 c 0,-0.40075 0.0371,-0.39665 0.35589,0.0393 0.32534,0.44494 0.37001,0.39963 0.52055,-0.52801 0.18191,-1.12098 -0.13102,-1.70964 -0.90883,-1.70964 -0.41974,0 -0.49678,0.20515 -0.49678,1.32292 0,0.7276 0.11907,1.32292 0.26459,1.32292 0.14552,0 0.26458,-0.20135 0.26458,-0.44745 z m 0,-1.28796 c 0,-0.22687 0.11906,-0.33891 0.26458,-0.24897 0.14553,0.0899 0.26459,0.27556 0.26459,0.41249 0,0.13693 -0.11906,0.24897 -0.26459,0.24897 -0.14552,0 -0.26458,-0.18562 -0.26458,-0.41249 z"
         id="path33"
         inkscape:connector-curvature="0" />
      <path
         style="fill:#97989b;stroke-width:0.26458335"
         d="m 115.05595,152.46191 v -2.24896 h 28.575 28.575 v 2.24896 2.24895 h -28.575 -28.575 z m 11.79286,0.16235 c 0,-0.29798 -0.13709,-0.4465 -0.34018,-0.36857 -0.43302,0.16616 -0.43784,0.51959 -0.009,0.69245 0.1819,0.0734 0.33498,0.14285 0.34018,0.15434 0.005,0.0115 0.009,-0.20371 0.009,-0.47822 z m -3.59078,0.11154 c 0,-0.0676 -0.26789,-0.2528 -0.59531,-0.41147 -0.57166,-0.27703 -0.57491,-0.27215 -0.0817,0.12298 0.53982,0.43248 0.67703,0.49095 0.67703,0.28849 z m 1.46221,-0.61967 c -0.0815,-0.0815 -0.29495,-1.7e-4 -0.47443,0.18065 -0.25936,0.26131 -0.22897,0.2917 0.14811,0.14812 0.26094,-0.0994 0.40779,-0.24731 0.32632,-0.32877 z m 10.88502,-15.04415 c -0.097,-0.097 -0.17639,-0.80912 -0.17639,-1.58246 0,-1.28109 0.0591,-1.42091 0.66489,-1.57295 0.71746,-0.18007 1.45177,0.25019 1.45177,0.85065 0,0.20046 -0.17859,0.36448 -0.39687,0.36448 -0.21828,0 -0.39688,-0.11906 -0.39688,-0.26458 0,-0.14553 -0.11906,-0.26459 -0.26458,-0.26459 -0.14552,0 -0.26458,0.41672 -0.26458,0.92604 0,0.50933 0.11906,0.92605 0.26458,0.92605 0.14552,0 0.26458,-0.11907 0.26458,-0.26459 0,-0.14552 0.1786,-0.26458 0.39688,-0.26458 0.47632,0 0.52084,0.56395 0.0794,1.00542 -0.34224,0.34224 -1.33529,0.42859 -1.62277,0.14111 z m 2.31302,-0.18796 c -0.25115,-0.65447 0.0133,-2.89802 0.35486,-3.01046 0.20733,-0.0683 0.33073,0.14615 0.33073,0.57463 0,0.37593 0.11906,0.68351 0.26458,0.68351 0.14552,0 0.26458,-0.29766 0.26458,-0.66146 0,-0.41157 0.14993,-0.66146 0.39688,-0.66146 0.31207,0 0.39687,0.36748 0.39687,1.71979 0,1.35232 -0.0848,1.7198 -0.39687,1.7198 -0.24695,0 -0.39688,-0.24989 -0.39688,-0.66146 0,-0.3638 -0.11906,-0.66146 -0.26458,-0.66146 -0.14552,0 -0.26458,0.29766 -0.26458,0.66146 0,0.70619 -0.45324,0.9026 -0.68559,0.29711 z m 2.37559,-0.0987 c 0.076,-0.25466 0.27818,-1.03429 0.44932,-1.73252 0.43021,-1.75522 1.02745,-1.58866 1.51854,0.4235 0.39037,1.59943 0.24321,2.23196 -0.33522,1.4409 -0.41468,-0.5671 -0.94139,-0.60387 -0.94139,-0.0657 0,0.21828 -0.18662,0.39688 -0.41471,0.39688 -0.2712,0 -0.36689,-0.16023 -0.27654,-0.46303 z m 1.3161,-1.25677 c -0.0838,-0.21828 -0.19909,-0.39687 -0.25628,-0.39687 -0.0572,0 -0.10399,0.17859 -0.10399,0.39687 0,0.21829 0.11533,0.39688 0.25628,0.39688 0.14095,0 0.18775,-0.17859 0.10399,-0.39688 z m 1.7564,0.39688 c 0,-0.99954 -0.097,-1.32292 -0.39688,-1.32292 -0.21828,0 -0.39687,-0.18578 -0.39687,-0.41285 0,-0.31403 0.23256,-0.39319 0.97173,-0.33072 0.93643,0.0791 1.62457,0.74357 0.77011,0.74357 -0.32632,0 -0.41893,0.29244 -0.41893,1.32292 0,0.7276 -0.11906,1.32292 -0.26458,1.32292 -0.14552,0 -0.26458,-0.59532 -0.26458,-1.32292 z m 1.5875,-0.39688 c 0,-1.71822 7.9e-4,-1.71979 0.76135,-1.71979 0.99363,0 1.31225,0.42504 1.2892,1.71979 -0.0235,1.32295 -0.32103,1.7198 -1.2892,1.7198 -0.76066,0 -0.76135,-0.002 -0.76135,-1.7198 z m 1.32291,0.66146 c 0,-0.14552 -0.11906,-0.26458 -0.26458,-0.26458 -0.14552,0 -0.26458,0.11906 -0.26458,0.26458 0,0.14552 0.11906,0.26459 0.26458,0.26459 0.14552,0 0.26458,-0.11907 0.26458,-0.26459 z m 0,-1.32291 c 0,-0.14553 -0.11906,-0.26459 -0.26458,-0.26459 -0.14552,0 -0.26458,0.11906 -0.26458,0.26459 0,0.14552 0.11906,0.26458 0.26458,0.26458 0.14552,0 0.26458,-0.11906 0.26458,-0.26458 z m 1.38721,2.07512 c -0.43644,-0.43644 -0.41992,-2.11406 0.0268,-2.72503 0.26439,-0.36158 0.5394,-0.44035 1.07129,-0.30686 0.6861,0.1722 0.71232,0.24194 0.63648,1.69266 -0.0728,1.39322 -0.13165,1.5192 -0.74242,1.59058 -0.36483,0.0426 -0.81131,-0.0705 -0.99219,-0.25135 z m 0.99404,-1.41367 c 0,-0.50932 -0.11906,-0.92604 -0.26458,-0.92604 -0.14552,0 -0.26458,0.41672 -0.26458,0.92604 0,0.50933 0.11906,0.92605 0.26458,0.92605 0.14552,0 0.26458,-0.41672 0.26458,-0.92605 z m 1.85209,0.44723 c 0,-0.95001 -0.11519,-1.36085 -0.41365,-1.47538 -0.67363,-0.2585 -0.15626,-0.69164 0.82614,-0.69164 0.63288,0 0.91042,0.12099 0.91042,0.39688 0,0.21828 -0.11253,0.39687 -0.25008,0.39687 -0.13755,0 -0.28638,0.55624 -0.33073,1.23609 -0.11395,1.74664 -0.7421,1.86276 -0.7421,0.13718 z m -5.96515,-4.66853 c -0.49903,-0.49902 -0.64944,-0.92797 -0.64944,-1.85209 v -1.20265 h -2.51354 c -2.05787,0 -2.51354,-0.072 -2.51354,-0.39687 0,-0.33808 0.70556,-0.39688 4.7625,-0.39688 4.05694,0 4.7625,0.0588 4.7625,0.39688 0,0.22048 -0.23518,0.39687 -0.52917,0.39687 -0.45757,0 -0.52916,0.17639 -0.52916,1.30372 0,1.09328 -0.11252,1.39222 -0.69714,1.85208 -0.90323,0.71048 -1.30066,0.69129 -2.09301,-0.10106 z m -5.14735,-8.84318 c 0,-0.1277 0.1816,-0.38289 0.40355,-0.5671 0.36074,-0.29939 0.35799,-0.38525 -0.0259,-0.80947 -0.6014,-0.66454 -0.21572,-1.21201 0.43742,-0.62092 0.41314,0.37389 0.56828,0.39225 0.91099,0.10783 0.27537,-0.22854 0.50125,-0.25461 0.67763,-0.0782 0.17639,0.17639 0.12633,0.37932 -0.15018,0.6088 -0.3764,0.3124 -0.37585,0.38723 0.006,0.80919 0.51673,0.57098 0.037,0.99615 -0.56253,0.49857 -0.30033,-0.24924 -0.4708,-0.25477 -0.70279,-0.0228 -0.36029,0.36029 -0.99421,0.40754 -0.99421,0.0741 z m 5.97165,-0.002 c -0.0797,-0.12903 0.0353,-0.38423 0.25564,-0.5671 0.35705,-0.29633 0.35486,-0.38308 -0.0202,-0.79746 -0.51362,-0.56755 -0.0387,-0.99759 0.55628,-0.50376 0.3131,0.25985 0.48869,0.23479 0.88819,-0.12675 0.64137,-0.58044 1.06965,-0.0282 0.45489,0.58656 -0.38731,0.38731 -0.38637,0.463 0.0112,0.90228 0.55608,0.61447 0.228,0.9578 -0.48799,0.51066 -0.39329,-0.24561 -0.62928,-0.26148 -0.83464,-0.0561 -0.34754,0.34754 -0.62961,0.36525 -0.8234,0.0517 z m 7.91218,-6.10225 c 0.51212,-0.99033 0.50805,-1.55078 -0.0204,-2.8156 -0.66694,-1.5962 -0.41047,-4.05002 0.56858,-5.44002 2.11428,-3.00173 6.59324,-3.18924 9.0604,-0.3793 1.90614,2.17097 1.79737,5.22379 -0.26586,7.46214 -1.39204,1.51018 -3.27942,2.13289 -5.20982,1.71889 -0.84528,-0.18128 -1.58995,-0.18833 -2.17483,-0.0206 -0.48918,0.14027 -1.22068,0.25505 -1.62557,0.25505 -0.73001,0 -0.73278,-0.007 -0.33247,-0.78061 z m 2.38804,-3.98193 c 0.0899,-0.14552 -0.0816,-0.26458 -0.38126,-0.26458 -0.29963,0 -0.54478,-0.11906 -0.54478,-0.26458 0,-0.14552 0.1786,-0.26459 0.39688,-0.26459 0.21828,0 0.39687,-0.11906 0.39687,-0.26458 0,-0.14552 -0.17859,-0.26458 -0.39687,-0.26458 -0.21828,0 -0.39688,-0.11907 -0.39688,-0.26459 0,-0.14552 0.24515,-0.26458 0.54478,-0.26458 0.29963,0 0.4712,-0.11906 0.38126,-0.26458 -0.0899,-0.14552 -0.45415,-0.26459 -0.80936,-0.26459 -0.59863,0 -0.64585,0.0967 -0.64585,1.32292 0,1.22619 0.0472,1.32292 0.64585,1.32292 0.35521,0 0.71943,-0.11907 0.80936,-0.26459 z m 0.92604,-0.18286 c 0,-0.39095 0.0504,-0.3826 0.39886,0.0661 0.36901,0.47515 0.39376,0.41458 0.33073,-0.80933 -0.059,-1.14577 -0.14785,-1.33424 -0.66344,-1.40746 -0.55019,-0.0781 -0.59531,0.0171 -0.59531,1.25677 0,0.73772 0.11906,1.34132 0.26458,1.34132 0.14552,0 0.26458,-0.20135 0.26458,-0.44745 z m 0.0209,-1.29439 c 0.0127,-0.30823 0.0754,-0.37092 0.15985,-0.15986 0.0764,0.191 0.067,0.4192 -0.0209,0.50712 -0.0879,0.0879 -0.15046,-0.0683 -0.13897,-0.34726 z m 2.09579,1.29439 c 0,0.2461 0.12559,0.44745 0.27908,0.44745 0.16787,0 0.24694,-0.50083 0.19844,-1.25677 -0.0688,-1.07249 -0.16793,-1.26917 -0.67596,-1.34132 -0.5542,-0.0787 -0.59473,0.0126 -0.58689,1.32291 0.008,1.29513 0.0394,1.36647 0.39687,0.89388 0.33874,-0.44785 0.38846,-0.45632 0.38846,-0.0661 z m -0.36026,-1.27235 c 0.0838,-0.21828 0.19909,-0.39687 0.25628,-0.39687 0.0572,0 0.10398,0.17859 0.10398,0.39687 0,0.21829 -0.11533,0.39688 -0.25628,0.39688 -0.14095,0 -0.18774,-0.17859 -0.10398,-0.39688 z m 2.60922,0.39688 c 0,-1.09361 -0.0539,-1.19063 -0.66146,-1.19063 -0.55684,0 -0.67487,0.14 -0.74625,0.88509 -0.11846,1.23665 0.10932,1.68054 0.81121,1.58087 0.51802,-0.0736 0.5965,-0.24134 0.5965,-1.27533 z m -0.92604,0 c 0,-0.43656 0.11906,-0.79375 0.26458,-0.79375 0.14552,0 0.26458,0.35719 0.26458,0.79375 0,0.43656 -0.11906,0.79375 -0.26458,0.79375 -0.14552,0 -0.26458,-0.35719 -0.26458,-0.79375 z m 1.85208,0.87547 c 0,-0.40075 0.0371,-0.39665 0.35589,0.0393 0.32534,0.44494 0.37001,0.39963 0.52055,-0.52801 0.18191,-1.12098 -0.13102,-1.70964 -0.90883,-1.70964 -0.41974,0 -0.49678,0.20515 -0.49678,1.32292 0,0.7276 0.11907,1.32292 0.26459,1.32292 0.14552,0 0.26458,-0.20135 0.26458,-0.44745 z m 0,-1.28796 c 0,-0.22687 0.11906,-0.33891 0.26458,-0.24897 0.14553,0.0899 0.26459,0.27556 0.26459,0.41249 0,0.13693 -0.11906,0.24897 -0.26459,0.24897 -0.14552,0 -0.26458,-0.18562 -0.26458,-0.41249 z"
         id="path31"
         inkscape:connector-curvature="0" />
      <path
         style="fill:#f94747;stroke-width:0.26458335"
         d="m 115.05595,152.46191 v -2.24896 h 28.575 28.575 v 2.24896 2.24895 h -28.575 -28.575 z m 3.2663,0.51775 c -0.0862,-0.22456 -0.21342,-0.35154 -0.28277,-0.28218 -0.0694,0.0693 -0.0476,0.25308 0.0483,0.40828 0.26089,0.42213 0.41338,0.34013 0.23447,-0.1261 z m 3.11745,-0.0547 c 0.32911,-0.41965 0.31975,-0.42901 -0.0999,-0.0999 -0.25466,0.19972 -0.46302,0.40808 -0.46302,0.46302 0,0.21776 0.21728,0.0776 0.56292,-0.36312 z m 1.81833,-0.10276 c 0,-0.13452 -0.19965,-0.32119 -0.44367,-0.41483 -0.39699,-0.15235 -0.39004,-0.19127 0.0661,-0.36998 0.46695,-0.18292 0.45976,-0.20128 -0.0855,-0.21831 -0.66912,-0.0209 -0.80666,0.44607 -0.19995,0.67889 0.21744,0.0834 0.32828,0.26024 0.2463,0.39288 -0.082,0.13265 -0.27829,0.16131 -0.43624,0.0637 -0.16737,-0.10344 -0.2114,-0.0549 -0.10554,0.11642 0.20298,0.32842 0.95845,0.13235 0.95845,-0.24876 z m 2.22335,0.3569 c 0.50743,0.27029 0.52236,0.25623 0.17492,-0.16485 -0.28269,-0.34259 -0.30037,-0.50949 -0.0691,-0.65242 0.17092,-0.10563 -0.10462,-0.20384 -0.61232,-0.21823 -0.70964,-0.0201 -0.9231,0.0799 -0.9231,0.43272 0,0.60893 0.29975,0.88233 0.61821,0.56387 0.16576,-0.16576 0.45303,-0.15198 0.81139,0.0389 z m -1.16501,-0.43696 c 0,-0.22687 0.11906,-0.41249 0.26458,-0.41249 0.14552,0 0.26458,0.11203 0.26458,0.24896 0,0.13694 -0.11906,0.32256 -0.26458,0.41249 -0.14552,0.0899 -0.26458,-0.0221 -0.26458,-0.24896 z m -0.6104,-0.6059 c -0.0671,-0.25743 -0.12638,-0.11087 -0.13177,0.3257 -0.005,0.43656 0.0495,0.64718 0.12197,0.46805 0.0725,-0.17913 0.0769,-0.53632 0.01,-0.79375 z m 3.14284,0.43332 c 0,-0.25611 -0.0834,-0.41412 -0.18529,-0.35113 -0.10191,0.063 -0.24559,-0.0351 -0.31929,-0.21787 -0.0737,-0.1828 -0.1434,-0.0248 -0.15489,0.35113 -0.012,0.39138 0.1245,0.68351 0.31929,0.68351 0.1871,0 0.34018,-0.20954 0.34018,-0.46564 z m 31.17468,0.24515 c -0.075,-0.12126 -0.24831,-0.22048 -0.38524,-0.22048 -0.13693,0 -0.24897,0.0992 -0.24897,0.22048 0,0.12127 0.17336,0.22049 0.38524,0.22049 0.21188,0 0.32392,-0.0992 0.24897,-0.22049 z m 1.74704,0.0441 c 0,-0.14552 -0.17859,-0.26458 -0.39687,-0.26458 -0.21828,0 -0.39688,0.11906 -0.39688,0.26458 0,0.14552 0.1786,0.26459 0.39688,0.26459 0.21828,0 0.39687,-0.11907 0.39687,-0.26459 z m 1.05834,-0.0156 c 0,-0.15411 -0.11906,-0.20661 -0.26459,-0.11667 -0.14552,0.0899 -0.26458,0.0176 -0.26458,-0.16078 0,-0.17836 -0.0714,-0.25284 -0.15879,-0.16551 -0.20326,0.20327 0.11233,0.72316 0.43899,0.72316 0.13693,0 0.24897,-0.12609 0.24897,-0.2802 z m 1.05833,0.16352 c 0,-0.0642 -0.11906,-0.19026 -0.26458,-0.28019 -0.14552,-0.0899 -0.26459,-0.0374 -0.26459,0.11667 0,0.15411 0.11907,0.2802 0.26459,0.2802 0.14552,0 0.26458,-0.0525 0.26458,-0.11668 z m 0.79375,-0.13229 c 0,-0.13693 -0.11906,-0.32255 -0.26458,-0.41249 -0.14552,-0.0899 -0.26459,0.0221 -0.26459,0.24897 0,0.22687 0.11907,0.41249 0.26459,0.41249 0.14552,0 0.26458,-0.11203 0.26458,-0.24897 z m 1.69254,0.0285 c 0.075,-0.12127 -0.0371,-0.22049 -0.24897,-0.22049 -0.21188,0 -0.38523,0.0992 -0.38523,0.22049 0,0.12126 0.11203,0.22048 0.24896,0.22048 0.13694,0 0.31029,-0.0992 0.38524,-0.22048 z m 0.9533,0.1038 c 0,-0.0642 -0.11907,-0.19026 -0.26459,-0.2802 -0.14552,-0.0899 -0.26458,-0.0374 -0.26458,0.11668 0,0.15411 0.11906,0.2802 0.26458,0.2802 0.14552,0 0.26459,-0.0525 0.26459,-0.11668 z m 3.07466,-0.37608 c 0.0427,-0.221 0.0178,-0.22488 -0.0838,-0.0131 -0.10604,0.22101 -0.19655,0.21687 -0.34021,-0.0156 -0.1439,-0.23284 -0.23567,-0.21264 -0.34653,0.0763 -0.0995,0.25929 -0.004,0.37147 0.27957,0.3298 0.2367,-0.0347 0.45765,-0.20457 0.491,-0.37739 z m 2.12456,0.14422 c 0.11473,-0.11473 0.004,-0.13004 -0.24635,-0.034 -0.25023,0.096 -0.45496,0.0683 -0.45496,-0.0616 0,-0.1299 -0.23812,-0.23619 -0.52916,-0.23619 -0.29105,0 -0.52917,0.13915 -0.52917,0.30922 0,0.3406 1.42335,0.35889 1.75964,0.0226 z m -50.21251,-0.23985 c 0.10153,0.16183 0.31775,0.1023 0.55462,-0.15272 0.34279,-0.36906 0.33882,-0.39901 -0.0339,-0.25598 -0.23216,0.0891 -0.55568,0.0284 -0.71894,-0.13484 -0.21937,-0.21938 -0.29137,-0.12769 -0.27593,0.3514 0.0115,0.35653 0.0854,0.48593 0.16432,0.28757 0.0867,-0.21798 0.20927,-0.25573 0.30984,-0.0954 z m 46.70582,0.10332 c 0.075,-0.12127 -0.0371,-0.22049 -0.24897,-0.22049 -0.21187,0 -0.38523,0.0992 -0.38523,0.22049 0,0.12126 0.11203,0.22048 0.24897,0.22048 0.13693,0 0.31029,-0.0992 0.38523,-0.22048 z M 135.881,137.08314 c -0.10315,-0.10315 -0.18755,-0.82255 -0.18755,-1.59866 0,-1.39152 0.011,-1.41111 0.79375,-1.41111 0.61736,0 0.79375,0.11759 0.79375,0.52916 0,0.29104 -0.11906,0.52917 -0.26458,0.52917 -0.14552,0 -0.26459,-0.11906 -0.26459,-0.26458 0,-0.14553 -0.11906,-0.26459 -0.26458,-0.26459 -0.14552,0 -0.26458,0.47625 -0.26458,1.05834 0,0.58208 0.11906,1.05833 0.26458,1.05833 0.14552,0 0.26458,-0.17859 0.26458,-0.39688 0,-0.21828 0.12735,-0.39687 0.28299,-0.39687 0.15564,0 0.24494,0.26789 0.19844,0.59531 -0.0835,0.58776 -0.96161,0.95297 -1.35221,0.56238 z m 2.1937,-1.42227 c 0,-0.88195 0.11759,-1.5875 0.26458,-1.5875 0.14552,0 0.26459,0.29765 0.26459,0.66145 0,0.36381 0.11906,0.66146 0.26458,0.66146 0.14552,0 0.26458,-0.29765 0.26458,-0.66146 0,-0.42104 0.14905,-0.66145 0.41008,-0.66145 0.33038,0 0.39466,0.28341 0.33073,1.45825 -0.0772,1.41839 -0.52301,2.01887 -0.69306,0.93348 -0.12016,-0.76692 -0.57691,-0.67048 -0.57691,0.12181 0,0.3638 -0.11907,0.66146 -0.26459,0.66146 -0.14699,0 -0.26458,-0.70556 -0.26458,-1.5875 z m 2.38967,1.24164 c -0.005,-0.26299 0.12622,-1.01286 0.29078,-1.66638 0.40026,-1.5896 1.00799,-1.4681 1.46442,0.29275 0.41717,1.60936 0.42283,1.71949 0.0885,1.71949 -0.14552,0 -0.26458,-0.1786 -0.26458,-0.39688 0,-0.54345 -0.78893,-0.50064 -1.21919,0.0661 -0.33343,0.43924 -0.35191,0.43846 -0.35989,-0.0151 z m 1.31045,-1.1755 c -0.002,-0.10914 -0.11947,-0.37703 -0.26054,-0.59531 -0.2074,-0.32093 -0.25725,-0.28296 -0.26053,0.19844 -0.002,0.32742 0.11501,0.59531 0.26053,0.59531 0.14553,0 0.26276,-0.0893 0.26054,-0.19844 z m 1.59155,0.29375 c 0,-0.85886 -0.13908,-1.33318 -0.46302,-1.57908 -0.41145,-0.31234 -0.35251,-0.35242 0.52916,-0.3599 0.54571,-0.005 0.99219,0.11065 0.99219,0.25617 0,0.14552 -0.11906,0.26458 -0.26458,0.26458 -0.14552,0 -0.26459,0.59531 -0.26459,1.32292 0,0.7276 -0.11906,1.32292 -0.26458,1.32292 -0.14552,0 -0.26458,-0.55243 -0.26458,-1.22761 z m 1.77603,1.06336 c -0.10369,-0.10369 -0.18853,-0.82353 -0.18853,-1.59964 v -1.41111 h 0.93924 0.93925 l -0.0794,1.52135 c -0.0734,1.40718 -0.12974,1.52723 -0.75071,1.59965 -0.36925,0.0431 -0.7562,-0.007 -0.8599,-0.11025 z m 1.13438,-0.7618 c 0,-0.21828 -0.17859,-0.39687 -0.39687,-0.39687 -0.41317,0 -0.52493,0.31292 -0.22049,0.61736 0.30444,0.30444 0.61736,0.19268 0.61736,-0.22049 z m 0,-1.3073 c 0,-0.20969 -0.11083,-0.44976 -0.2463,-0.53348 -0.31456,-0.19441 -0.63092,0.30104 -0.41515,0.65016 0.2433,0.39366 0.66145,0.3199 0.66145,-0.11668 z m 1.49931,2.05696 c -0.097,-0.097 -0.17639,-0.81893 -0.17639,-1.60427 v -1.42787 l 0.8599,0.0829 c 0.80974,0.0781 0.86469,0.14962 0.94221,1.22694 0.0453,0.62922 -0.0586,1.31383 -0.23084,1.52135 -0.32703,0.39405 -1.09163,0.50419 -1.39488,0.20094 z m 1.09635,-1.49771 c 0.0625,-0.73917 -0.0167,-0.97174 -0.33072,-0.97174 -0.30667,0 -0.41285,0.27786 -0.41285,1.08038 0,1.37855 0.62562,1.28714 0.74357,-0.10864 z m 1.63768,0.35118 c 0,-0.72761 -0.11906,-1.32292 -0.26459,-1.32292 -0.14552,0 -0.26458,-0.11906 -0.26458,-0.26458 0,-0.14552 0.44649,-0.2608 0.99219,-0.25617 0.88168,0.007 0.94061,0.0476 0.52917,0.3599 -0.32394,0.2459 -0.46303,0.72022 -0.46303,1.57908 0,0.67518 -0.11906,1.22761 -0.26458,1.22761 -0.14552,0 -0.26458,-0.59532 -0.26458,-1.32292 z m -5.96515,-4.61818 c -0.49903,-0.49902 -0.64944,-0.92797 -0.64944,-1.85209 v -1.20265 h -2.51354 c -2.05787,0 -2.51354,-0.072 -2.51354,-0.39687 0,-0.33808 0.70556,-0.39688 4.7625,-0.39688 4.05694,0 4.7625,0.0588 4.7625,0.39688 0,0.22048 -0.23518,0.39687 -0.52917,0.39687 -0.45757,0 -0.52916,0.17639 -0.52916,1.30372 0,1.09328 -0.11252,1.39222 -0.69714,1.85208 -0.90323,0.71048 -1.30066,0.69129 -2.09301,-0.10106 z m -5.14735,-8.84318 c 0,-0.1277 0.1816,-0.38289 0.40355,-0.5671 0.36074,-0.29939 0.35799,-0.38525 -0.0259,-0.80947 -0.6014,-0.66454 -0.21572,-1.21201 0.43742,-0.62092 0.41314,0.37389 0.56828,0.39225 0.91099,0.10783 0.27537,-0.22854 0.50125,-0.25461 0.67763,-0.0782 0.17639,0.17639 0.12633,0.37932 -0.15018,0.6088 -0.3764,0.3124 -0.37585,0.38723 0.006,0.80919 0.51673,0.57098 0.037,0.99615 -0.56253,0.49857 -0.30033,-0.24924 -0.4708,-0.25477 -0.70279,-0.0228 -0.36029,0.36029 -0.99421,0.40754 -0.99421,0.0741 z m 5.97165,-0.002 c -0.0797,-0.12903 0.0353,-0.38423 0.25564,-0.5671 0.35705,-0.29633 0.35486,-0.38308 -0.0202,-0.79746 -0.51362,-0.56755 -0.0387,-0.99759 0.55628,-0.50376 0.3131,0.25985 0.48869,0.23479 0.88819,-0.12675 0.64137,-0.58044 1.06965,-0.0282 0.45489,0.58656 -0.38731,0.38731 -0.38637,0.463 0.0112,0.90228 0.55608,0.61447 0.228,0.9578 -0.48799,0.51066 -0.39329,-0.24561 -0.62928,-0.26148 -0.83464,-0.0561 -0.34754,0.34754 -0.62961,0.36525 -0.8234,0.0517 z m 7.91218,-6.10225 c 0.51212,-0.99033 0.50805,-1.55078 -0.0204,-2.8156 -0.66694,-1.5962 -0.41047,-4.05002 0.56858,-5.44002 2.11428,-3.00173 6.59324,-3.18924 9.0604,-0.3793 1.90614,2.17097 1.79737,5.22379 -0.26586,7.46214 -1.39204,1.51018 -3.27942,2.13289 -5.20982,1.71889 -0.84528,-0.18128 -1.58995,-0.18833 -2.17483,-0.0206 -0.48918,0.14027 -1.22068,0.25505 -1.62557,0.25505 -0.73001,0 -0.73278,-0.007 -0.33247,-0.78061 z m 2.38804,-3.98193 c 0.0899,-0.14552 -0.0816,-0.26458 -0.38126,-0.26458 -0.29963,0 -0.54478,-0.11906 -0.54478,-0.26458 0,-0.14552 0.1786,-0.26459 0.39688,-0.26459 0.21828,0 0.39687,-0.11906 0.39687,-0.26458 0,-0.14552 -0.17859,-0.26458 -0.39687,-0.26458 -0.21828,0 -0.39688,-0.11907 -0.39688,-0.26459 0,-0.14552 0.24515,-0.26458 0.54478,-0.26458 0.29963,0 0.4712,-0.11906 0.38126,-0.26458 -0.0899,-0.14552 -0.45415,-0.26459 -0.80936,-0.26459 -0.59863,0 -0.64585,0.0967 -0.64585,1.32292 0,1.22619 0.0472,1.32292 0.64585,1.32292 0.35521,0 0.71943,-0.11907 0.80936,-0.26459 z m 0.92604,-0.18286 c 0,-0.39095 0.0504,-0.3826 0.39886,0.0661 0.36901,0.47515 0.39376,0.41458 0.33073,-0.80933 -0.059,-1.14577 -0.14785,-1.33424 -0.66344,-1.40746 -0.55019,-0.0781 -0.59531,0.0171 -0.59531,1.25677 0,0.73772 0.11906,1.34132 0.26458,1.34132 0.14552,0 0.26458,-0.20135 0.26458,-0.44745 z m 0.0209,-1.29439 c 0.0127,-0.30823 0.0754,-0.37092 0.15985,-0.15986 0.0764,0.191 0.067,0.4192 -0.0209,0.50712 -0.0879,0.0879 -0.15046,-0.0683 -0.13897,-0.34726 z m 2.09579,1.29439 c 0,0.2461 0.12559,0.44745 0.27908,0.44745 0.16787,0 0.24694,-0.50083 0.19844,-1.25677 -0.0688,-1.07249 -0.16793,-1.26917 -0.67596,-1.34132 -0.5542,-0.0787 -0.59473,0.0126 -0.58689,1.32291 0.008,1.29513 0.0394,1.36647 0.39687,0.89388 0.33874,-0.44785 0.38846,-0.45632 0.38846,-0.0661 z m -0.36026,-1.27235 c 0.0838,-0.21828 0.19909,-0.39687 0.25628,-0.39687 0.0572,0 0.10398,0.17859 0.10398,0.39687 0,0.21829 -0.11533,0.39688 -0.25628,0.39688 -0.14095,0 -0.18774,-0.17859 -0.10398,-0.39688 z m 2.60922,0.39688 c 0,-1.09361 -0.0539,-1.19063 -0.66146,-1.19063 -0.55684,0 -0.67487,0.14 -0.74625,0.88509 -0.11846,1.23665 0.10932,1.68054 0.81121,1.58087 0.51802,-0.0736 0.5965,-0.24134 0.5965,-1.27533 z m -0.92604,0 c 0,-0.43656 0.11906,-0.79375 0.26458,-0.79375 0.14552,0 0.26458,0.35719 0.26458,0.79375 0,0.43656 -0.11906,0.79375 -0.26458,0.79375 -0.14552,0 -0.26458,-0.35719 -0.26458,-0.79375 z m 1.85208,0.87547 c 0,-0.40075 0.0371,-0.39665 0.35589,0.0393 0.32534,0.44494 0.37001,0.39963 0.52055,-0.52801 0.18191,-1.12098 -0.13102,-1.70964 -0.90883,-1.70964 -0.41974,0 -0.49678,0.20515 -0.49678,1.32292 0,0.7276 0.11907,1.32292 0.26459,1.32292 0.14552,0 0.26458,-0.20135 0.26458,-0.44745 z m 0,-1.28796 c 0,-0.22687 0.11906,-0.33891 0.26458,-0.24897 0.14553,0.0899 0.26459,0.27556 0.26459,0.41249 0,0.13693 -0.11906,0.24897 -0.26459,0.24897 -0.14552,0 -0.26458,-0.18562 -0.26458,-0.41249 z"
         id="path29"
         inkscape:connector-curvature="0" />
      <path
         style="fill:#f83434;stroke-width:0.26458335"
         d="m 115.05595,152.46191 v -2.24896 h 28.575 28.575 v 2.24896 2.24895 h -28.575 -28.575 z m 3.2663,0.51775 c -0.0862,-0.22456 -0.21342,-0.35154 -0.28277,-0.28218 -0.0694,0.0693 -0.0476,0.25308 0.0483,0.40828 0.26089,0.42213 0.41338,0.34013 0.23447,-0.1261 z m 3.11745,-0.0547 c 0.32911,-0.41965 0.31975,-0.42901 -0.0999,-0.0999 -0.25466,0.19972 -0.46302,0.40808 -0.46302,0.46302 0,0.21776 0.21728,0.0776 0.56292,-0.36312 z m 1.81833,-0.10276 c 0,-0.13452 -0.19965,-0.32119 -0.44367,-0.41483 -0.39699,-0.15235 -0.39004,-0.19127 0.0661,-0.36998 0.46695,-0.18292 0.45976,-0.20128 -0.0855,-0.21831 -0.66912,-0.0209 -0.80666,0.44607 -0.19995,0.67889 0.21744,0.0834 0.32828,0.26024 0.2463,0.39288 -0.082,0.13265 -0.27829,0.16131 -0.43624,0.0637 -0.16737,-0.10344 -0.2114,-0.0549 -0.10554,0.11642 0.20298,0.32842 0.95845,0.13235 0.95845,-0.24876 z m 2.22335,0.3569 c 0.50743,0.27029 0.52236,0.25623 0.17492,-0.16485 -0.28269,-0.34259 -0.30037,-0.50949 -0.0691,-0.65242 0.17092,-0.10563 -0.10462,-0.20384 -0.61232,-0.21823 -0.70964,-0.0201 -0.9231,0.0799 -0.9231,0.43272 0,0.60893 0.29975,0.88233 0.61821,0.56387 0.16576,-0.16576 0.45303,-0.15198 0.81139,0.0389 z m -1.16501,-0.43696 c 0,-0.22687 0.11906,-0.41249 0.26458,-0.41249 0.14552,0 0.26458,0.11203 0.26458,0.24896 0,0.13694 -0.11906,0.32256 -0.26458,0.41249 -0.14552,0.0899 -0.26458,-0.0221 -0.26458,-0.24896 z m -0.6104,-0.6059 c -0.0671,-0.25743 -0.12638,-0.11087 -0.13177,0.3257 -0.005,0.43656 0.0495,0.64718 0.12197,0.46805 0.0725,-0.17913 0.0769,-0.53632 0.01,-0.79375 z m 3.14284,0.43332 c 0,-0.25611 -0.0834,-0.41412 -0.18529,-0.35113 -0.10191,0.063 -0.24559,-0.0351 -0.31929,-0.21787 -0.0737,-0.1828 -0.1434,-0.0248 -0.15489,0.35113 -0.012,0.39138 0.1245,0.68351 0.31929,0.68351 0.1871,0 0.34018,-0.20954 0.34018,-0.46564 z m 31.17468,0.24515 c -0.075,-0.12126 -0.24831,-0.22048 -0.38524,-0.22048 -0.13693,0 -0.24897,0.0992 -0.24897,0.22048 0,0.12127 0.17336,0.22049 0.38524,0.22049 0.21188,0 0.32392,-0.0992 0.24897,-0.22049 z m 1.74704,0.0441 c 0,-0.14552 -0.17859,-0.26458 -0.39687,-0.26458 -0.21828,0 -0.39688,0.11906 -0.39688,0.26458 0,0.14552 0.1786,0.26459 0.39688,0.26459 0.21828,0 0.39687,-0.11907 0.39687,-0.26459 z m 1.05834,-0.0156 c 0,-0.15411 -0.11906,-0.20661 -0.26459,-0.11667 -0.14552,0.0899 -0.26458,0.0176 -0.26458,-0.16078 0,-0.17836 -0.0714,-0.25284 -0.15879,-0.16551 -0.20326,0.20327 0.11233,0.72316 0.43899,0.72316 0.13693,0 0.24897,-0.12609 0.24897,-0.2802 z m 1.05833,0.16352 c 0,-0.0642 -0.11906,-0.19026 -0.26458,-0.28019 -0.14552,-0.0899 -0.26459,-0.0374 -0.26459,0.11667 0,0.15411 0.11907,0.2802 0.26459,0.2802 0.14552,0 0.26458,-0.0525 0.26458,-0.11668 z m 0.79375,-0.13229 c 0,-0.13693 -0.11906,-0.32255 -0.26458,-0.41249 -0.14552,-0.0899 -0.26459,0.0221 -0.26459,0.24897 0,0.22687 0.11907,0.41249 0.26459,0.41249 0.14552,0 0.26458,-0.11203 0.26458,-0.24897 z m 1.69254,0.0285 c 0.075,-0.12127 -0.0371,-0.22049 -0.24897,-0.22049 -0.21188,0 -0.38523,0.0992 -0.38523,0.22049 0,0.12126 0.11203,0.22048 0.24896,0.22048 0.13694,0 0.31029,-0.0992 0.38524,-0.22048 z m 0.9533,0.1038 c 0,-0.0642 -0.11907,-0.19026 -0.26459,-0.2802 -0.14552,-0.0899 -0.26458,-0.0374 -0.26458,0.11668 0,0.15411 0.11906,0.2802 0.26458,0.2802 0.14552,0 0.26459,-0.0525 0.26459,-0.11668 z m 3.07466,-0.37608 c 0.0427,-0.221 0.0178,-0.22488 -0.0838,-0.0131 -0.10604,0.22101 -0.19655,0.21687 -0.34021,-0.0156 -0.1439,-0.23284 -0.23567,-0.21264 -0.34653,0.0763 -0.0995,0.25929 -0.004,0.37147 0.27957,0.3298 0.2367,-0.0347 0.45765,-0.20457 0.491,-0.37739 z m 2.12456,0.14422 c 0.11473,-0.11473 0.004,-0.13004 -0.24635,-0.034 -0.25023,0.096 -0.45496,0.0683 -0.45496,-0.0616 0,-0.1299 -0.23812,-0.23619 -0.52916,-0.23619 -0.29105,0 -0.52917,0.13915 -0.52917,0.30922 0,0.3406 1.42335,0.35889 1.75964,0.0226 z m -50.21251,-0.23985 c 0.10153,0.16183 0.31775,0.1023 0.55462,-0.15272 0.34279,-0.36906 0.33882,-0.39901 -0.0339,-0.25598 -0.23216,0.0891 -0.55568,0.0284 -0.71894,-0.13484 -0.21937,-0.21938 -0.29137,-0.12769 -0.27593,0.3514 0.0115,0.35653 0.0854,0.48593 0.16432,0.28757 0.0867,-0.21798 0.20927,-0.25573 0.30984,-0.0954 z m 46.70582,0.10332 c 0.075,-0.12127 -0.0371,-0.22049 -0.24897,-0.22049 -0.21187,0 -0.38523,0.0992 -0.38523,0.22049 0,0.12126 0.11203,0.22048 0.24897,0.22048 0.13693,0 0.31029,-0.0992 0.38523,-0.22048 z M 135.881,137.08314 c -0.10315,-0.10315 -0.18755,-0.82255 -0.18755,-1.59866 0,-1.39152 0.011,-1.41111 0.79375,-1.41111 0.61736,0 0.79375,0.11759 0.79375,0.52916 0,0.29104 -0.11906,0.52917 -0.26458,0.52917 -0.14552,0 -0.26459,-0.11906 -0.26459,-0.26458 0,-0.14553 -0.11906,-0.26459 -0.26458,-0.26459 -0.14552,0 -0.26458,0.47625 -0.26458,1.05834 0,0.58208 0.11906,1.05833 0.26458,1.05833 0.14552,0 0.26458,-0.17859 0.26458,-0.39688 0,-0.21828 0.12735,-0.39687 0.28299,-0.39687 0.15564,0 0.24494,0.26789 0.19844,0.59531 -0.0835,0.58776 -0.96161,0.95297 -1.35221,0.56238 z m 2.1937,-1.42227 c 0,-0.88195 0.11759,-1.5875 0.26458,-1.5875 0.14552,0 0.26459,0.29765 0.26459,0.66145 0,0.36381 0.11906,0.66146 0.26458,0.66146 0.14552,0 0.26458,-0.29765 0.26458,-0.66146 0,-0.42104 0.14905,-0.66145 0.41008,-0.66145 0.33038,0 0.39466,0.28341 0.33073,1.45825 -0.0772,1.41839 -0.52301,2.01887 -0.69306,0.93348 -0.12016,-0.76692 -0.57691,-0.67048 -0.57691,0.12181 0,0.3638 -0.11907,0.66146 -0.26459,0.66146 -0.14699,0 -0.26458,-0.70556 -0.26458,-1.5875 z m 2.38967,1.24164 c -0.005,-0.26299 0.12622,-1.01286 0.29078,-1.66638 0.40026,-1.5896 1.00799,-1.4681 1.46442,0.29275 0.41717,1.60936 0.42283,1.71949 0.0885,1.71949 -0.14552,0 -0.26458,-0.1786 -0.26458,-0.39688 0,-0.54345 -0.78893,-0.50064 -1.21919,0.0661 -0.33343,0.43924 -0.35191,0.43846 -0.35989,-0.0151 z m 1.31045,-1.1755 c -0.002,-0.10914 -0.11947,-0.37703 -0.26054,-0.59531 -0.2074,-0.32093 -0.25725,-0.28296 -0.26053,0.19844 -0.002,0.32742 0.11501,0.59531 0.26053,0.59531 0.14553,0 0.26276,-0.0893 0.26054,-0.19844 z m 1.59155,0.29375 c 0,-0.85886 -0.13908,-1.33318 -0.46302,-1.57908 -0.41145,-0.31234 -0.35251,-0.35242 0.52916,-0.3599 0.54571,-0.005 0.99219,0.11065 0.99219,0.25617 0,0.14552 -0.11906,0.26458 -0.26458,0.26458 -0.14552,0 -0.26459,0.59531 -0.26459,1.32292 0,0.7276 -0.11906,1.32292 -0.26458,1.32292 -0.14552,0 -0.26458,-0.55243 -0.26458,-1.22761 z m 1.77603,1.06336 c -0.10369,-0.10369 -0.18853,-0.82353 -0.18853,-1.59964 v -1.41111 h 0.93924 0.93925 l -0.0794,1.52135 c -0.0734,1.40718 -0.12974,1.52723 -0.75071,1.59965 -0.36925,0.0431 -0.7562,-0.007 -0.8599,-0.11025 z m 1.13438,-0.7618 c 0,-0.21828 -0.17859,-0.39687 -0.39687,-0.39687 -0.41317,0 -0.52493,0.31292 -0.22049,0.61736 0.30444,0.30444 0.61736,0.19268 0.61736,-0.22049 z m 0,-1.3073 c 0,-0.20969 -0.11083,-0.44976 -0.2463,-0.53348 -0.31456,-0.19441 -0.63092,0.30104 -0.41515,0.65016 0.2433,0.39366 0.66145,0.3199 0.66145,-0.11668 z m 1.49931,2.05696 c -0.097,-0.097 -0.17639,-0.81893 -0.17639,-1.60427 v -1.42787 l 0.8599,0.0829 c 0.80974,0.0781 0.86469,0.14962 0.94221,1.22694 0.0453,0.62922 -0.0586,1.31383 -0.23084,1.52135 -0.32703,0.39405 -1.09163,0.50419 -1.39488,0.20094 z m 1.09635,-1.49771 c 0.0625,-0.73917 -0.0167,-0.97174 -0.33072,-0.97174 -0.30667,0 -0.41285,0.27786 -0.41285,1.08038 0,1.37855 0.62562,1.28714 0.74357,-0.10864 z m 1.63768,0.35118 c 0,-0.72761 -0.11906,-1.32292 -0.26459,-1.32292 -0.14552,0 -0.26458,-0.11906 -0.26458,-0.26458 0,-0.14552 0.44649,-0.2608 0.99219,-0.25617 0.88168,0.007 0.94061,0.0476 0.52917,0.3599 -0.32394,0.2459 -0.46303,0.72022 -0.46303,1.57908 0,0.67518 -0.11906,1.22761 -0.26458,1.22761 -0.14552,0 -0.26458,-0.59532 -0.26458,-1.32292 z m -5.96515,-4.61818 c -0.49903,-0.49902 -0.64944,-0.92797 -0.64944,-1.85209 v -1.20265 h -2.51354 c -2.05787,0 -2.51354,-0.072 -2.51354,-0.39687 0,-0.33808 0.70556,-0.39688 4.7625,-0.39688 4.05694,0 4.7625,0.0588 4.7625,0.39688 0,0.22048 -0.23518,0.39687 -0.52917,0.39687 -0.45757,0 -0.52916,0.17639 -0.52916,1.30372 0,1.09328 -0.11252,1.39222 -0.69714,1.85208 -0.90323,0.71048 -1.30066,0.69129 -2.09301,-0.10106 z m 1.6789,-0.46182 c 0.38263,-0.38263 0.42773,-2.59292 0.0529,-2.59292 -0.14552,0 -0.26458,0.29766 -0.26458,0.66146 0,0.41158 -0.14993,0.66146 -0.39687,0.66146 -0.24695,0 -0.39688,-0.24988 -0.39688,-0.66146 0,-0.3638 -0.11906,-0.66146 -0.26458,-0.66146 -0.14552,0 -0.26459,0.51197 -0.26459,1.13771 0,1.11338 0.34443,1.77271 0.92605,1.77271 0.16007,0 0.43391,-0.14288 0.60854,-0.3175 z m -6.82625,-8.38136 c 0,-0.1277 0.1816,-0.38289 0.40355,-0.5671 0.36074,-0.29939 0.35799,-0.38525 -0.0259,-0.80947 -0.6014,-0.66454 -0.21572,-1.21201 0.43742,-0.62092 0.41314,0.37389 0.56828,0.39225 0.91099,0.10783 0.27537,-0.22854 0.50125,-0.25461 0.67763,-0.0782 0.17639,0.17639 0.12633,0.37932 -0.15018,0.6088 -0.3764,0.3124 -0.37585,0.38723 0.006,0.80919 0.51673,0.57098 0.037,0.99615 -0.56253,0.49857 -0.30033,-0.24924 -0.4708,-0.25477 -0.70279,-0.0228 -0.36029,0.36029 -0.99421,0.40754 -0.99421,0.0741 z m 5.97165,-0.002 c -0.0797,-0.12903 0.0353,-0.38423 0.25564,-0.5671 0.35705,-0.29633 0.35486,-0.38308 -0.0202,-0.79746 -0.51362,-0.56755 -0.0387,-0.99759 0.55628,-0.50376 0.3131,0.25985 0.48869,0.23479 0.88819,-0.12675 0.64137,-0.58044 1.06965,-0.0282 0.45489,0.58656 -0.38731,0.38731 -0.38637,0.463 0.0112,0.90228 0.55608,0.61447 0.228,0.9578 -0.48799,0.51066 -0.39329,-0.24561 -0.62928,-0.26148 -0.83464,-0.0561 -0.34754,0.34754 -0.62961,0.36525 -0.8234,0.0517 z m 7.63246,-5.55078 c 0.13173,-0.21314 1.47714,-0.0969 1.47714,0.12766 0,0.0558 -0.36422,0.10144 -0.80937,0.10144 -0.44515,0 -0.74565,-0.10309 -0.66777,-0.2291 z m 0.74477,-1.88756 c 0,-0.50933 0.0545,-0.71769 0.121,-0.46302 0.0666,0.25466 0.0666,0.67138 0,0.92604 -0.0666,0.25466 -0.121,0.0463 -0.121,-0.46302 z m 8.66987,0.13229 c 0.34177,-0.3638 0.68094,-0.66146 0.7537,-0.66146 0.0728,0 -0.14734,0.29766 -0.48912,0.66146 -0.34177,0.3638 -0.68094,0.66146 -0.7537,0.66146 -0.0728,0 0.14734,-0.29766 0.48912,-0.66146 z m -7.73906,-2.42419 c 0.1819,-0.0734 0.47955,-0.0734 0.66145,0 0.1819,0.0734 0.0331,0.13345 -0.33073,0.13345 -0.3638,0 -0.51263,-0.0601 -0.33072,-0.13345 z m 3.89172,-0.10696 c -0.27148,-0.43926 -0.0278,-0.50017 0.35204,-0.088 0.18764,0.2036 0.22443,0.37019 0.0818,0.37019 -0.14267,0 -0.33788,-0.12698 -0.4338,-0.28219 z m 1.68106,0.10145 c 0.191,-0.0764 0.4192,-0.067 0.50712,0.0209 0.0879,0.0879 -0.0683,0.15045 -0.34726,0.13896 -0.30823,-0.0127 -0.37092,-0.0754 -0.15986,-0.15985 z m -7.27944,-1.40676 c 0,-0.80037 0.0496,-1.12779 0.11023,-0.7276 0.0606,0.40018 0.0606,1.05502 0,1.4552 -0.0606,0.40019 -0.11023,0.0728 -0.11023,-0.7276 z m 3.64577,0.90399 c 0.0127,-0.30822 0.0754,-0.37092 0.15985,-0.15985 0.0764,0.191 0.067,0.4192 -0.0209,0.50712 -0.0879,0.0879 -0.15045,-0.0683 -0.13897,-0.34727 z m -2.59466,-0.90399 c 0,-0.65484 0.0516,-0.92273 0.11467,-0.59531 0.0631,0.32742 0.0631,0.8632 0,1.19062 -0.0631,0.32742 -0.11467,0.0595 -0.11467,-0.59531 z m 3.38841,0.63941 c 0.0127,-0.30823 0.0754,-0.37092 0.15985,-0.15985 0.0764,0.19099 0.067,0.4192 -0.0209,0.50711 -0.0879,0.0879 -0.15045,-0.0683 -0.13897,-0.34726 z m 1.90326,-0.63941 c 0,-0.65484 0.0516,-0.92273 0.11466,-0.59531 0.0631,0.32742 0.0631,0.8632 0,1.19062 -0.0631,0.32742 -0.11466,0.0595 -0.11466,-0.59531 z m 1.8907,-0.26458 c 0.0181,-0.99784 0.1073,-1.19484 0.55078,-1.21663 0.37441,-0.0184 0.3978,0.006 0.08,0.0827 -0.31115,0.0753 -0.48041,0.44921 -0.55077,1.21663 l -0.10158,1.10789 z m -5.93151,0.54931 c 0.35277,-0.25309 0.35277,-0.31637 0,-0.56946 -0.35278,-0.25309 -0.35278,-0.27269 0,-0.17639 0.21828,0.0596 0.39687,0.26709 0.39687,0.46112 0,0.19403 -0.17859,0.40153 -0.39687,0.46111 -0.35278,0.0963 -0.35278,0.0767 0,-0.17638 z m -0.59531,-1.78288 c 0.1819,-0.0734 0.47955,-0.0734 0.66145,0 0.1819,0.0734 0.0331,0.13346 -0.33073,0.13346 -0.3638,0 -0.51263,-0.0601 -0.33072,-0.13346 z m 1.5875,0 c 0.1819,-0.0734 0.47955,-0.0734 0.66145,0 0.18191,0.0734 0.0331,0.13346 -0.33073,0.13346 -0.3638,0 -0.51263,-0.0601 -0.33072,-0.13346 z m 1.85208,0 c 0.1819,-0.0734 0.47956,-0.0734 0.66146,0 0.1819,0.0734 0.0331,0.13346 -0.33073,0.13346 -0.3638,0 -0.51263,-0.0601 -0.33073,-0.13346 z m 2.1332,-0.006 c 0.191,-0.0764 0.4192,-0.067 0.50712,0.0209 0.0879,0.0879 -0.0683,0.15045 -0.34726,0.13897 -0.30823,-0.0127 -0.37092,-0.0754 -0.15986,-0.15986 z m -5.77122,-2.3328 c 0.49365,-0.50932 0.95708,-0.92604 1.02984,-0.92604 0.0728,0 -0.2716,0.41672 -0.76526,0.92604 -0.49365,0.50932 -0.95708,0.92604 -1.02984,0.92604 -0.0728,0 0.2716,-0.41672 0.76526,-0.92604 z m 7.78007,-0.19844 -0.50403,-0.59531 0.59531,0.50403 c 0.55945,0.47366 0.71576,0.6866 0.50403,0.6866 -0.0502,0 -0.3181,-0.26789 -0.59531,-0.59532 z m -1.16549,-0.7276 c -0.23846,-0.15411 -0.2711,-0.2581 -0.0818,-0.26053 0.17331,-0.002 0.3887,0.11501 0.47864,0.26053 0.20301,0.32849 0.11142,0.32849 -0.39688,0 z m -3.77031,-0.7044 c 0.1819,-0.0734 0.47956,-0.0734 0.66146,0 0.1819,0.0734 0.0331,0.13346 -0.33073,0.13346 -0.3638,0 -0.51263,-0.0601 -0.33073,-0.13346 z m 1.86862,-0.006 c 0.19099,-0.0764 0.4192,-0.067 0.50712,0.0209 0.0879,0.0879 -0.0684,0.15045 -0.34727,0.13897 -0.30822,-0.0127 -0.37092,-0.0754 -0.15985,-0.15986 z"
         id="path27"
         inkscape:connector-curvature="0" />
      <path
         style="fill:#636368;stroke-width:0.26458335"
         d="m 115.05595,152.46191 v -2.24896 h 28.575 28.575 v 2.24896 2.24895 h -28.575 -28.575 z m 3.2663,0.51775 c -0.0862,-0.22456 -0.21342,-0.35154 -0.28277,-0.28218 -0.0694,0.0693 -0.0476,0.25308 0.0483,0.40828 0.26089,0.42213 0.41338,0.34013 0.23447,-0.1261 z m 3.11745,-0.0547 c 0.32911,-0.41965 0.31975,-0.42901 -0.0999,-0.0999 -0.25466,0.19972 -0.46302,0.40808 -0.46302,0.46302 0,0.21776 0.21728,0.0776 0.56292,-0.36312 z m 1.81833,-0.10276 c 0,-0.13452 -0.19965,-0.32119 -0.44367,-0.41483 -0.39699,-0.15235 -0.39004,-0.19127 0.0661,-0.36998 0.46695,-0.18292 0.45976,-0.20128 -0.0855,-0.21831 -0.66912,-0.0209 -0.80666,0.44607 -0.19995,0.67889 0.21744,0.0834 0.32828,0.26024 0.2463,0.39288 -0.082,0.13265 -0.27829,0.16131 -0.43624,0.0637 -0.16737,-0.10344 -0.2114,-0.0549 -0.10554,0.11642 0.20298,0.32842 0.95845,0.13235 0.95845,-0.24876 z m 2.22335,0.3569 c 0.50743,0.27029 0.52236,0.25623 0.17492,-0.16485 -0.28269,-0.34259 -0.30037,-0.50949 -0.0691,-0.65242 0.17092,-0.10563 -0.10462,-0.20384 -0.61232,-0.21823 -0.70964,-0.0201 -0.9231,0.0799 -0.9231,0.43272 0,0.60893 0.29975,0.88233 0.61821,0.56387 0.16576,-0.16576 0.45303,-0.15198 0.81139,0.0389 z m -1.16501,-0.43696 c 0,-0.22687 0.11906,-0.41249 0.26458,-0.41249 0.14552,0 0.26458,0.11203 0.26458,0.24896 0,0.13694 -0.11906,0.32256 -0.26458,0.41249 -0.14552,0.0899 -0.26458,-0.0221 -0.26458,-0.24896 z m -0.6104,-0.6059 c -0.0671,-0.25743 -0.12638,-0.11087 -0.13177,0.3257 -0.005,0.43656 0.0495,0.64718 0.12197,0.46805 0.0725,-0.17913 0.0769,-0.53632 0.01,-0.79375 z m 3.14284,0.43332 c 0,-0.25611 -0.0834,-0.41412 -0.18529,-0.35113 -0.10191,0.063 -0.24559,-0.0351 -0.31929,-0.21787 -0.0737,-0.1828 -0.1434,-0.0248 -0.15489,0.35113 -0.012,0.39138 0.1245,0.68351 0.31929,0.68351 0.1871,0 0.34018,-0.20954 0.34018,-0.46564 z m 31.17468,0.24515 c -0.075,-0.12126 -0.24831,-0.22048 -0.38524,-0.22048 -0.13693,0 -0.24897,0.0992 -0.24897,0.22048 0,0.12127 0.17336,0.22049 0.38524,0.22049 0.21188,0 0.32392,-0.0992 0.24897,-0.22049 z m 1.74704,0.0441 c 0,-0.14552 -0.17859,-0.26458 -0.39687,-0.26458 -0.21828,0 -0.39688,0.11906 -0.39688,0.26458 0,0.14552 0.1786,0.26459 0.39688,0.26459 0.21828,0 0.39687,-0.11907 0.39687,-0.26459 z m 1.05834,-0.0156 c 0,-0.15411 -0.11906,-0.20661 -0.26459,-0.11667 -0.14552,0.0899 -0.26458,0.0176 -0.26458,-0.16078 0,-0.17836 -0.0714,-0.25284 -0.15879,-0.16551 -0.20326,0.20327 0.11233,0.72316 0.43899,0.72316 0.13693,0 0.24897,-0.12609 0.24897,-0.2802 z m 1.05833,0.16352 c 0,-0.0642 -0.11906,-0.19026 -0.26458,-0.28019 -0.14552,-0.0899 -0.26459,-0.0374 -0.26459,0.11667 0,0.15411 0.11907,0.2802 0.26459,0.2802 0.14552,0 0.26458,-0.0525 0.26458,-0.11668 z m 0.79375,-0.13229 c 0,-0.13693 -0.11906,-0.32255 -0.26458,-0.41249 -0.14552,-0.0899 -0.26459,0.0221 -0.26459,0.24897 0,0.22687 0.11907,0.41249 0.26459,0.41249 0.14552,0 0.26458,-0.11203 0.26458,-0.24897 z m 1.69254,0.0285 c 0.075,-0.12127 -0.0371,-0.22049 -0.24897,-0.22049 -0.21188,0 -0.38523,0.0992 -0.38523,0.22049 0,0.12126 0.11203,0.22048 0.24896,0.22048 0.13694,0 0.31029,-0.0992 0.38524,-0.22048 z m 0.9533,0.1038 c 0,-0.0642 -0.11907,-0.19026 -0.26459,-0.2802 -0.14552,-0.0899 -0.26458,-0.0374 -0.26458,0.11668 0,0.15411 0.11906,0.2802 0.26458,0.2802 0.14552,0 0.26459,-0.0525 0.26459,-0.11668 z m 3.07466,-0.37608 c 0.0427,-0.221 0.0178,-0.22488 -0.0838,-0.0131 -0.10604,0.22101 -0.19655,0.21687 -0.34021,-0.0156 -0.1439,-0.23284 -0.23567,-0.21264 -0.34653,0.0763 -0.0995,0.25929 -0.004,0.37147 0.27957,0.3298 0.2367,-0.0347 0.45765,-0.20457 0.491,-0.37739 z m 2.12456,0.14422 c 0.11473,-0.11473 0.004,-0.13004 -0.24635,-0.034 -0.25023,0.096 -0.45496,0.0683 -0.45496,-0.0616 0,-0.1299 -0.23812,-0.23619 -0.52916,-0.23619 -0.29105,0 -0.52917,0.13915 -0.52917,0.30922 0,0.3406 1.42335,0.35889 1.75964,0.0226 z m -50.21251,-0.23985 c 0.10153,0.16183 0.31775,0.1023 0.55462,-0.15272 0.34279,-0.36906 0.33882,-0.39901 -0.0339,-0.25598 -0.23216,0.0891 -0.55568,0.0284 -0.71894,-0.13484 -0.21937,-0.21938 -0.29137,-0.12769 -0.27593,0.3514 0.0115,0.35653 0.0854,0.48593 0.16432,0.28757 0.0867,-0.21798 0.20927,-0.25573 0.30984,-0.0954 z m 46.70582,0.10332 c 0.075,-0.12127 -0.0371,-0.22049 -0.24897,-0.22049 -0.21187,0 -0.38523,0.0992 -0.38523,0.22049 0,0.12126 0.11203,0.22048 0.24897,0.22048 0.13693,0 0.31029,-0.0992 0.38523,-0.22048 z M 135.881,137.08314 c -0.10315,-0.10315 -0.18755,-0.82255 -0.18755,-1.59866 0,-1.39152 0.011,-1.41111 0.79375,-1.41111 0.61736,0 0.79375,0.11759 0.79375,0.52916 0,0.29104 -0.11906,0.52917 -0.26458,0.52917 -0.14552,0 -0.26459,-0.11906 -0.26459,-0.26458 0,-0.14553 -0.11906,-0.26459 -0.26458,-0.26459 -0.14552,0 -0.26458,0.47625 -0.26458,1.05834 0,0.58208 0.11906,1.05833 0.26458,1.05833 0.14552,0 0.26458,-0.17859 0.26458,-0.39688 0,-0.21828 0.12735,-0.39687 0.28299,-0.39687 0.15564,0 0.24494,0.26789 0.19844,0.59531 -0.0835,0.58776 -0.96161,0.95297 -1.35221,0.56238 z m 2.1937,-1.42227 c 0,-0.88195 0.11759,-1.5875 0.26458,-1.5875 0.14552,0 0.26459,0.29765 0.26459,0.66145 0,0.36381 0.11906,0.66146 0.26458,0.66146 0.14552,0 0.26458,-0.29765 0.26458,-0.66146 0,-0.42104 0.14905,-0.66145 0.41008,-0.66145 0.33038,0 0.39466,0.28341 0.33073,1.45825 -0.0772,1.41839 -0.52301,2.01887 -0.69306,0.93348 -0.12016,-0.76692 -0.57691,-0.67048 -0.57691,0.12181 0,0.3638 -0.11907,0.66146 -0.26459,0.66146 -0.14699,0 -0.26458,-0.70556 -0.26458,-1.5875 z m 2.38967,1.24164 c -0.005,-0.26299 0.12622,-1.01286 0.29078,-1.66638 0.40026,-1.5896 1.00799,-1.4681 1.46442,0.29275 0.41717,1.60936 0.42283,1.71949 0.0885,1.71949 -0.14552,0 -0.26458,-0.1786 -0.26458,-0.39688 0,-0.54345 -0.78893,-0.50064 -1.21919,0.0661 -0.33343,0.43924 -0.35191,0.43846 -0.35989,-0.0151 z m 1.31045,-1.1755 c -0.002,-0.10914 -0.11947,-0.37703 -0.26054,-0.59531 -0.2074,-0.32093 -0.25725,-0.28296 -0.26053,0.19844 -0.002,0.32742 0.11501,0.59531 0.26053,0.59531 0.14553,0 0.26276,-0.0893 0.26054,-0.19844 z m 1.59155,0.29375 c 0,-0.85886 -0.13908,-1.33318 -0.46302,-1.57908 -0.41145,-0.31234 -0.35251,-0.35242 0.52916,-0.3599 0.54571,-0.005 0.99219,0.11065 0.99219,0.25617 0,0.14552 -0.11906,0.26458 -0.26458,0.26458 -0.14552,0 -0.26459,0.59531 -0.26459,1.32292 0,0.7276 -0.11906,1.32292 -0.26458,1.32292 -0.14552,0 -0.26458,-0.55243 -0.26458,-1.22761 z m 1.77603,1.06336 c -0.10369,-0.10369 -0.18853,-0.82353 -0.18853,-1.59964 v -1.41111 h 0.93924 0.93925 l -0.0794,1.52135 c -0.0734,1.40718 -0.12974,1.52723 -0.75071,1.59965 -0.36925,0.0431 -0.7562,-0.007 -0.8599,-0.11025 z m 1.13438,-0.7618 c 0,-0.21828 -0.17859,-0.39687 -0.39687,-0.39687 -0.41317,0 -0.52493,0.31292 -0.22049,0.61736 0.30444,0.30444 0.61736,0.19268 0.61736,-0.22049 z m 0,-1.3073 c 0,-0.20969 -0.11083,-0.44976 -0.2463,-0.53348 -0.31456,-0.19441 -0.63092,0.30104 -0.41515,0.65016 0.2433,0.39366 0.66145,0.3199 0.66145,-0.11668 z m 1.49931,2.05696 c -0.097,-0.097 -0.17639,-0.81893 -0.17639,-1.60427 v -1.42787 l 0.8599,0.0829 c 0.80974,0.0781 0.86469,0.14962 0.94221,1.22694 0.0453,0.62922 -0.0586,1.31383 -0.23084,1.52135 -0.32703,0.39405 -1.09163,0.50419 -1.39488,0.20094 z m 1.09635,-1.49771 c 0.0625,-0.73917 -0.0167,-0.97174 -0.33072,-0.97174 -0.30667,0 -0.41285,0.27786 -0.41285,1.08038 0,1.37855 0.62562,1.28714 0.74357,-0.10864 z m 1.63768,0.35118 c 0,-0.72761 -0.11906,-1.32292 -0.26459,-1.32292 -0.14552,0 -0.26458,-0.11906 -0.26458,-0.26458 0,-0.14552 0.44649,-0.2608 0.99219,-0.25617 0.88168,0.007 0.94061,0.0476 0.52917,0.3599 -0.32394,0.2459 -0.46303,0.72022 -0.46303,1.57908 0,0.67518 -0.11906,1.22761 -0.26458,1.22761 -0.14552,0 -0.26458,-0.59532 -0.26458,-1.32292 z m -5.96515,-4.61818 c -0.49903,-0.49902 -0.64944,-0.92797 -0.64944,-1.85209 v -1.20265 h -2.51354 c -2.05787,0 -2.51354,-0.072 -2.51354,-0.39687 0,-0.33808 0.70556,-0.39688 4.7625,-0.39688 4.05694,0 4.7625,0.0588 4.7625,0.39688 0,0.22048 -0.23518,0.39687 -0.52917,0.39687 -0.45757,0 -0.52916,0.17639 -0.52916,1.30372 0,1.09328 -0.11252,1.39222 -0.69714,1.85208 -0.90323,0.71048 -1.30066,0.69129 -2.09301,-0.10106 z m 1.94408,-1.66568 c 0.0487,-0.84631 -0.0288,-1.38906 -0.19844,-1.38906 -0.15312,0 -0.27841,0.29766 -0.27841,0.66146 0,0.41158 -0.14993,0.66146 -0.39687,0.66146 -0.24695,0 -0.39688,-0.24988 -0.39688,-0.66146 0,-0.3638 -0.11906,-0.66146 -0.26458,-0.66146 -0.38049,0 -0.32688,2.21312 0.0631,2.60306 0.18021,0.1802 0.56716,0.29331 0.8599,0.25135 0.44366,-0.0636 0.54557,-0.30749 0.61223,-1.46535 z m -7.09143,-7.1775 c 0,-0.1277 0.1816,-0.38289 0.40355,-0.5671 0.36074,-0.29939 0.35799,-0.38525 -0.0259,-0.80947 -0.6014,-0.66454 -0.21572,-1.21201 0.43742,-0.62092 0.41314,0.37389 0.56828,0.39225 0.91099,0.10783 0.27537,-0.22854 0.50125,-0.25461 0.67763,-0.0782 0.17639,0.17639 0.12633,0.37932 -0.15018,0.6088 -0.3764,0.3124 -0.37585,0.38723 0.006,0.80919 0.51673,0.57098 0.037,0.99615 -0.56253,0.49857 -0.30033,-0.24924 -0.4708,-0.25477 -0.70279,-0.0228 -0.36029,0.36029 -0.99421,0.40754 -0.99421,0.0741 z m 5.97165,-0.002 c -0.0797,-0.12903 0.0353,-0.38423 0.25564,-0.5671 0.35705,-0.29633 0.35486,-0.38308 -0.0202,-0.79746 -0.51362,-0.56755 -0.0387,-0.99759 0.55628,-0.50376 0.3131,0.25985 0.48869,0.23479 0.88819,-0.12675 0.64137,-0.58044 1.06965,-0.0282 0.45489,0.58656 -0.38731,0.38731 -0.38637,0.463 0.0112,0.90228 0.55608,0.61447 0.228,0.9578 -0.48799,0.51066 -0.39329,-0.24561 -0.62928,-0.26148 -0.83464,-0.0561 -0.34754,0.34754 -0.62961,0.36525 -0.8234,0.0517 z"
         id="path25"
         inkscape:connector-curvature="0" />
      <path
         style="fill:#101120;stroke-width:0.26458335"
         d="m 115.05595,152.46191 v -2.24896 h 28.575 28.575 v 2.24896 2.24895 h -28.575 -28.575 z m 3.03477,0.64861 c 0.0943,0.15258 0.31326,0.27561 0.48657,0.27338 0.18934,-0.002 0.15671,-0.10643 -0.0818,-0.26053 -0.34202,-0.22104 -0.33504,-0.25705 0.0505,-0.26054 0.24608,-0.002 0.51228,0.10092 0.59158,0.22922 0.12239,0.19803 0.83195,0.21598 2.46675,0.0624 0.1819,-0.0171 0.33073,-0.19852 0.33073,-0.40318 0,-0.25778 0.18289,-0.32204 0.59531,-0.20914 0.48407,0.13252 0.50879,0.18095 0.13229,0.25922 -0.81585,0.16958 -0.49483,0.53513 0.44652,0.50845 0.50688,-0.0144 0.84018,-0.138 0.75287,-0.27928 -0.0963,-0.15584 -0.0135,-0.16331 0.21494,-0.0194 0.20438,0.12875 0.99584,0.24762 1.75878,0.26415 1.11034,0.024 1.3302,-0.0386 1.1017,-0.31391 -0.3643,-0.43895 -0.079,-0.91948 0.43002,-0.72416 0.21362,0.082 0.3884,0.0371 0.3884,-0.0998 0,-0.46222 -0.346,-0.5988 -0.72342,-0.28556 -0.29003,0.2407 -0.42348,0.23337 -0.58763,-0.0322 -0.16108,-0.26062 -0.23824,-0.2661 -0.31939,-0.0227 -0.12083,0.3625 -2.05297,0.44299 -2.30634,0.0961 -0.18629,-0.25506 -1.02699,-0.27146 -1.61947,-0.0316 -0.73474,0.29745 -1.86363,0.39895 -1.99911,0.17974 -0.0739,-0.1196 -0.3985,-0.11883 -0.72129,0.002 -0.32279,0.12054 -0.84465,0.1221 -1.15969,0.003 -0.4267,-0.16068 -0.61905,-0.10145 -0.75411,0.23222 -0.15455,0.38183 -0.21726,0.35442 -0.42507,-0.18582 -0.36181,-0.94061 -0.54768,-0.5167 -0.20476,0.467 0.22692,0.65093 0.37377,0.77943 0.6391,0.55922 0.23893,-0.19829 0.39702,-0.20089 0.51595,-0.008 z m 1.19856,-0.38403 c 0,-0.21828 0.11907,-0.39687 0.26459,-0.39687 0.14552,0 0.26458,0.17859 0.26458,0.39687 0,0.21828 -0.11906,0.39688 -0.26458,0.39688 -0.14552,0 -0.26459,-0.1786 -0.26459,-0.39688 z m 1.47716,0.1678 c -0.11398,-0.18441 -0.13577,-0.40675 -0.0484,-0.49408 0.23679,-0.2368 0.49497,0.11146 0.36708,0.49515 -0.0896,0.26886 -0.15194,0.26865 -0.31864,-0.001 z m 4.74055,-0.30009 c 0.0899,-0.14552 0.27556,-0.26458 0.41249,-0.26458 0.13693,0 0.24897,0.11906 0.24897,0.26458 0,0.14552 -0.18562,0.26458 -0.41249,0.26458 -0.22687,0 -0.3389,-0.11906 -0.24897,-0.26458 z m 34.52813,0.49271 c 0,0.21349 4.19496,0.16302 4.41105,-0.0531 0.086,-0.086 0.37891,-0.0374 0.65082,0.10814 0.39558,0.21171 0.4981,0.17019 0.51298,-0.20774 0.0163,-0.41459 0.0464,-0.40764 0.24598,0.0568 0.15318,0.35648 0.23478,0.39965 0.25004,0.1323 0.0149,-0.26217 0.0886,-0.29701 0.21703,-0.10263 0.11691,0.17696 1.01174,0.28643 2.24491,0.27463 1.84424,-0.0177 2.05052,-0.0711 2.05052,-0.53147 0,-0.48997 -0.15855,-0.50444 -3.7106,-0.33862 -2.04083,0.0953 -3.797,0.18634 -3.90261,0.2024 -0.1056,0.0161 -0.25153,0.006 -0.32429,-0.023 -0.0728,-0.0287 -1.47176,-0.0726 -3.1089,-0.0975 -2.35233,-0.0358 -2.9766,0.03 -2.97656,0.31376 2e-5,0.19747 0.14887,0.30325 0.33077,0.23505 0.18191,-0.0682 0.56628,-0.0401 0.85417,0.0625 0.28789,0.10256 0.91297,0.0986 1.38906,-0.009 0.4761,-0.10737 0.86563,-0.11764 0.86563,-0.0228 z m -24.34167,-17.55834 c 0,-1.4405 0.008,-1.4552 0.79375,-1.4552 0.64044,0 0.79375,0.11197 0.79375,0.57973 0,0.55117 -0.0176,0.5557 -0.35674,0.0919 -0.5163,-0.70608 -0.96618,-0.27235 -0.96618,0.93151 0,1.13083 0.54026,1.4328 1.03714,0.5797 0.24085,-0.41351 0.27055,-0.39936 0.27774,0.13229 0.007,0.48686 -0.13657,0.59531 -0.78571,0.59531 -0.78573,0 -0.79375,-0.0147 -0.79375,-1.45521 z m 2.38125,0 c 0,-0.80036 0.11906,-1.4552 0.26458,-1.4552 0.14552,0 0.26459,0.29765 0.26459,0.66145 0,0.91145 0.72914,0.85594 0.86882,-0.0661 0.0606,-0.40018 0.11022,-0.0132 0.11022,0.85989 0,0.87313 -0.0496,1.26008 -0.11022,0.8599 -0.13968,-0.92208 -0.86882,-0.97759 -0.86882,-0.0662 0,0.36381 -0.11907,0.66146 -0.26459,0.66146 -0.14552,0 -0.26458,-0.65484 -0.26458,-1.45521 z m 2.48785,0.92605 c 0.0982,-0.36381 0.24906,-1.04842 0.33519,-1.52136 0.19104,-1.04892 0.81223,-1.12868 1.03025,-0.13229 0.0876,0.40018 0.26224,1.05503 0.38816,1.45521 0.13941,0.44307 0.13086,0.7276 -0.0219,0.7276 -0.13795,0 -0.25082,-0.11906 -0.25082,-0.26458 0,-0.37379 -0.88361,-0.32904 -1.30599,0.0661 -0.29092,0.27219 -0.32189,0.21364 -0.17491,-0.33072 z m 1.21632,-0.92605 c 0,-0.3638 -0.11906,-0.66145 -0.26459,-0.66145 -0.14552,0 -0.26458,0.10932 -0.26458,0.24294 0,0.13362 -0.0723,0.43127 -0.1606,0.66146 -0.10538,0.27463 -0.0144,0.41851 0.26459,0.41851 0.27714,0 0.42518,-0.23031 0.42518,-0.66146 z m 1.5875,0.15434 c 0,-0.79313 -0.12909,-1.35295 -0.33073,-1.43432 -0.1819,-0.0734 0.086,-0.13345 0.59531,-0.13345 0.50932,0 0.77721,0.0601 0.59531,0.13345 -0.20164,0.0814 -0.33073,0.64119 -0.33073,1.43432 0,0.71548 -0.11906,1.30087 -0.26458,1.30087 -0.14552,0 -0.26458,-0.58539 -0.26458,-1.30087 z m 1.85208,-0.15434 c 0,-1.43262 0.012,-1.4552 0.77485,-1.4552 0.76283,0 0.77485,0.0226 0.77485,1.4552 0,1.43262 -0.012,1.45521 -0.77485,1.45521 -0.76282,0 -0.77485,-0.0226 -0.77485,-1.45521 z m 1.19063,0.66146 c 0,-0.21429 -0.20836,-0.42975 -0.46302,-0.4788 -0.32487,-0.0626 -0.46303,0.0803 -0.46303,0.4788 0,0.3985 0.13816,0.54136 0.46303,0.4788 0.25466,-0.049 0.46302,-0.2645 0.46302,-0.4788 z m 0,-1.32291 c 0,-0.2143 -0.20836,-0.42976 -0.46302,-0.4788 -0.32487,-0.0626 -0.46303,0.0803 -0.46303,0.4788 0,0.3985 0.13816,0.54136 0.46303,0.47879 0.25466,-0.049 0.46302,-0.2645 0.46302,-0.47879 z m 1.19062,0.66145 c 0,-1.4405 0.008,-1.4552 0.79375,-1.4552 0.78573,0 0.79375,0.0147 0.79375,1.4552 0,1.44051 -0.008,1.45521 -0.79375,1.45521 -0.78573,0 -0.79375,-0.0147 -0.79375,-1.45521 z m 1.27199,0.0661 c -0.0959,-1.32526 -0.81982,-1.60739 -0.96099,-0.37453 -0.11244,0.9819 0.10211,1.49901 0.62195,1.49901 0.33095,0 0.40308,-0.23924 0.33904,-1.12448 z m 1.63843,0.0882 c 0,-0.79313 -0.12909,-1.35295 -0.33073,-1.43432 -0.1819,-0.0734 0.086,-0.13345 0.59531,-0.13345 0.50932,0 0.77721,0.0601 0.59531,0.13345 -0.20164,0.0814 -0.33073,0.64119 -0.33073,1.43432 0,0.71548 -0.11906,1.30087 -0.26458,1.30087 -0.14552,0 -0.26458,-0.58539 -0.26458,-1.30087 z m -5.93423,-4.40657 c -0.26549,-0.26549 -0.41577,-0.8871 -0.41577,-1.71979 v -1.30402 h -2.64584 c -1.5875,0 -2.64583,-0.10583 -2.64583,-0.26458 0,-0.16659 1.76389,-0.26458 4.7625,-0.26458 2.99861,0 4.7625,0.098 4.7625,0.26458 0,0.14552 -0.29766,0.26458 -0.66146,0.26458 -0.62235,0 -0.66146,0.0829 -0.66146,1.40229 0,0.77126 -0.14287,1.54517 -0.3175,1.7198 -0.44953,0.44953 -1.6851,0.39376 -2.17714,-0.0983 z m 1.95617,-0.62516 c 0.43014,-0.80373 0.34837,-2.39865 -0.12298,-2.39865 -0.24695,0 -0.39688,0.24989 -0.39688,0.66146 0,0.3638 -0.11906,0.66146 -0.26458,0.66146 -0.14552,0 -0.26459,-0.29766 -0.26459,-0.66146 0,-0.41157 -0.14993,-0.66146 -0.39687,-0.66146 -0.29804,0 -0.39688,0.31848 -0.39688,1.27882 0,0.70335 0.0794,1.3582 0.17639,1.45521 0.36554,0.36554 1.40302,0.15673 1.66639,-0.33538 z m -6.95805,-8.13129 c -0.0976,-0.0976 0.0295,-0.40632 0.28254,-0.68593 0.43498,-0.48064 0.43523,-0.52656 0.005,-0.84138 -0.25047,-0.18315 -0.37761,-0.41078 -0.28255,-0.50585 0.0951,-0.0951 0.39277,0.0262 0.66156,0.26942 0.45812,0.41459 0.51191,0.41052 0.85973,-0.0652 0.48666,-0.66553 0.8166,-0.32471 0.37311,0.38542 -0.27021,0.43269 -0.27408,0.61669 -0.0183,0.87244 0.54503,0.54503 0.35978,0.86173 -0.20506,0.35056 -0.49353,-0.44664 -0.56179,-0.44936 -1.01366,-0.0404 -0.26647,0.24115 -0.56438,0.35856 -0.66203,0.26091 z m 5.90902,0.006 c 0,-0.13897 0.14585,-0.39852 0.32411,-0.57677 0.25575,-0.25575 0.25188,-0.43975 -0.0183,-0.87244 -0.44348,-0.71013 -0.11354,-1.05095 0.37312,-0.38542 0.34781,0.47568 0.40161,0.47975 0.85973,0.0652 0.26878,-0.24325 0.56648,-0.36449 0.66155,-0.26942 0.0951,0.0951 -0.0321,0.3227 -0.28254,0.50585 -0.43054,0.31482 -0.43029,0.36074 0.005,0.84138 0.58648,0.64805 0.26491,1.00819 -0.37949,0.42502 -0.45186,-0.40893 -0.52013,-0.40621 -1.01366,0.0404 -0.29104,0.26339 -0.52917,0.36518 -0.52917,0.22621 z"
         id="path23"
         inkscape:connector-curvature="0" />
    </g>
  </g>
</svg>
